<mxfile host="Electron" modified="2023-11-04T08:55:59.415Z" agent="Mozilla/5.0 (Windows NT 10.0; Win64; x64) AppleWebKit/537.36 (KHTML, like Gecko) draw.io/22.0.3 Chrome/114.0.5735.289 Electron/25.8.4 Safari/537.36" version="22.0.3" etag="MDvYIsZ044M0U3Zlwvj1" type="device">
  <diagram id="4DXWyz1Si2tPiAXw4-Sa" name="第 1 页">
    <mxGraphModel dx="694" dy="337" grid="1" gridSize="10" guides="1" tooltips="1" connect="1" arrows="1" fold="1" page="1" pageScale="1" pageWidth="50000" pageHeight="50000" math="0" shadow="0">
      <root>
        <mxCell id="0" />
        <mxCell id="1" parent="0" />
        <mxCell id="2" value="" style="whiteSpace=wrap;html=1;" parent="1" vertex="1">
          <mxGeometry x="260" y="209" width="180" height="130" as="geometry" />
        </mxCell>
        <mxCell id="3" value="" style="whiteSpace=wrap;html=1;" parent="1" vertex="1">
          <mxGeometry x="270" y="219" width="80" height="110" as="geometry" />
        </mxCell>
        <mxCell id="4" value="" style="whiteSpace=wrap;html=1;" parent="1" vertex="1">
          <mxGeometry x="360" y="219" width="70" height="110" as="geometry" />
        </mxCell>
        <mxCell id="5" style="edgeStyle=none;html=1;exitX=1;exitY=0.25;exitDx=0;exitDy=0;entryX=0;entryY=0.25;entryDx=0;entryDy=0;fontFamily=Comic Sans MS;fontSize=8;" parent="1" source="7" target="9" edge="1">
          <mxGeometry relative="1" as="geometry" />
        </mxCell>
        <mxCell id="6" style="edgeStyle=none;html=1;exitX=0.25;exitY=1;exitDx=0;exitDy=0;entryX=0.25;entryY=0;entryDx=0;entryDy=0;fontFamily=Comic Sans MS;fontSize=8;" parent="1" source="7" target="11" edge="1">
          <mxGeometry relative="1" as="geometry" />
        </mxCell>
        <mxCell id="7" value="ACC" style="whiteSpace=wrap;html=1;fontFamily=Comic Sans MS;fontSize=8;" parent="1" vertex="1">
          <mxGeometry x="280" y="229" width="20" height="20" as="geometry" />
        </mxCell>
        <mxCell id="8" style="edgeStyle=none;html=1;exitX=0;exitY=0.75;exitDx=0;exitDy=0;entryX=1;entryY=0.75;entryDx=0;entryDy=0;fontFamily=Comic Sans MS;fontSize=8;" parent="1" source="9" target="7" edge="1">
          <mxGeometry relative="1" as="geometry" />
        </mxCell>
        <mxCell id="9" value="MQ" style="whiteSpace=wrap;html=1;fontFamily=Comic Sans MS;fontSize=8;" parent="1" vertex="1">
          <mxGeometry x="320" y="229" width="20" height="20" as="geometry" />
        </mxCell>
        <mxCell id="10" style="edgeStyle=none;html=1;exitX=0.75;exitY=0;exitDx=0;exitDy=0;entryX=0.75;entryY=1;entryDx=0;entryDy=0;fontFamily=Comic Sans MS;fontSize=8;" parent="1" source="11" target="7" edge="1">
          <mxGeometry relative="1" as="geometry" />
        </mxCell>
        <mxCell id="11" value="ALU" style="whiteSpace=wrap;html=1;fontFamily=Comic Sans MS;fontSize=8;" parent="1" vertex="1">
          <mxGeometry x="280" y="264" width="20" height="20" as="geometry" />
        </mxCell>
        <mxCell id="12" style="edgeStyle=none;html=1;exitX=0.5;exitY=0;exitDx=0;exitDy=0;entryX=0.5;entryY=1;entryDx=0;entryDy=0;fontFamily=Comic Sans MS;fontSize=8;" parent="1" source="13" target="11" edge="1">
          <mxGeometry relative="1" as="geometry" />
        </mxCell>
        <mxCell id="13" value="X" style="whiteSpace=wrap;html=1;fontFamily=Comic Sans MS;fontSize=8;" parent="1" vertex="1">
          <mxGeometry x="280" y="299" width="20" height="20" as="geometry" />
        </mxCell>
        <mxCell id="14" value="CU" style="whiteSpace=wrap;html=1;fontFamily=Comic Sans MS;fontSize=8;" parent="1" vertex="1">
          <mxGeometry x="370" y="229" width="20" height="90" as="geometry" />
        </mxCell>
        <mxCell id="15" value="IR" style="whiteSpace=wrap;html=1;fontFamily=Comic Sans MS;fontSize=8;" parent="1" vertex="1">
          <mxGeometry x="400" y="229" width="20" height="40" as="geometry" />
        </mxCell>
        <mxCell id="16" value="PC" style="whiteSpace=wrap;html=1;fontFamily=Comic Sans MS;fontSize=8;" parent="1" vertex="1">
          <mxGeometry x="400" y="279" width="20" height="40" as="geometry" />
        </mxCell>
        <mxCell id="17" value="" style="whiteSpace=wrap;html=1;" parent="1" vertex="1">
          <mxGeometry x="460" y="210" width="70" height="129" as="geometry" />
        </mxCell>
        <mxCell id="18" style="edgeStyle=none;html=1;exitX=0.25;exitY=1;exitDx=0;exitDy=0;fontFamily=Comic Sans MS;fontSize=8;" parent="1" source="20" target="21" edge="1">
          <mxGeometry relative="1" as="geometry" />
        </mxCell>
        <mxCell id="19" style="edgeStyle=none;html=1;exitX=0.75;exitY=1;exitDx=0;exitDy=0;fontFamily=Comic Sans MS;fontSize=8;" parent="1" source="20" target="22" edge="1">
          <mxGeometry relative="1" as="geometry" />
        </mxCell>
        <mxCell id="20" value="&lt;font style=&quot;font-size: 8px;&quot;&gt;存储器&lt;/font&gt;" style="whiteSpace=wrap;html=1;fontFamily=Comic Sans MS;fontSize=9;" parent="1" vertex="1">
          <mxGeometry x="470" y="219" width="50" height="40" as="geometry" />
        </mxCell>
        <mxCell id="21" value="&lt;font style=&quot;font-size: 8px;&quot;&gt;MAR&lt;/font&gt;" style="whiteSpace=wrap;html=1;fontFamily=Comic Sans MS;fontSize=9;" parent="1" vertex="1">
          <mxGeometry x="470" y="279" width="20" height="50" as="geometry" />
        </mxCell>
        <mxCell id="22" value="&lt;font style=&quot;font-size: 8px;&quot;&gt;MDR&lt;/font&gt;" style="whiteSpace=wrap;html=1;fontFamily=Comic Sans MS;fontSize=9;" parent="1" vertex="1">
          <mxGeometry x="500" y="279" width="20" height="50" as="geometry" />
        </mxCell>
        <mxCell id="23" value="&lt;font style=&quot;font-size: 9px;&quot; face=&quot;Comic Sans MS&quot;&gt;I/O&lt;/font&gt;" style="whiteSpace=wrap;html=1;" parent="1" vertex="1">
          <mxGeometry x="550" y="210" width="20" height="129" as="geometry" />
        </mxCell>
        <mxCell id="24" value="运行器" style="text;html=1;align=center;verticalAlign=middle;resizable=0;points=[];autosize=1;strokeColor=none;fillColor=none;fontSize=9;fontFamily=Comic Sans MS;" parent="1" vertex="1">
          <mxGeometry x="285" y="329" width="50" height="20" as="geometry" />
        </mxCell>
        <mxCell id="25" value="控制器" style="text;html=1;align=center;verticalAlign=middle;resizable=0;points=[];autosize=1;strokeColor=none;fillColor=none;fontSize=9;fontFamily=Comic Sans MS;" parent="1" vertex="1">
          <mxGeometry x="370" y="329" width="50" height="20" as="geometry" />
        </mxCell>
        <mxCell id="26" value="CPU" style="text;html=1;align=center;verticalAlign=middle;resizable=0;points=[];autosize=1;strokeColor=none;fillColor=none;fontSize=9;fontFamily=Comic Sans MS;" parent="1" vertex="1">
          <mxGeometry x="330" y="190" width="40" height="20" as="geometry" />
        </mxCell>
        <mxCell id="27" value="主存储" style="text;html=1;align=center;verticalAlign=middle;resizable=0;points=[];autosize=1;strokeColor=none;fillColor=none;fontSize=9;fontFamily=Comic Sans MS;" parent="1" vertex="1">
          <mxGeometry x="470" y="329" width="50" height="20" as="geometry" />
        </mxCell>
        <mxCell id="28" value="" style="endArrow=none;html=1;" parent="1" edge="1">
          <mxGeometry width="50" height="50" relative="1" as="geometry">
            <mxPoint x="399.1111246744792" y="600" as="sourcePoint" />
            <mxPoint x="480" y="600" as="targetPoint" />
          </mxGeometry>
        </mxCell>
        <mxCell id="29" value="" style="endArrow=none;html=1;" parent="1" edge="1">
          <mxGeometry width="50" height="50" relative="1" as="geometry">
            <mxPoint x="560.0011246744791" y="600" as="sourcePoint" />
            <mxPoint x="640.89" y="600" as="targetPoint" />
          </mxGeometry>
        </mxCell>
        <mxCell id="30" value="" style="endArrow=none;html=1;" parent="1" edge="1">
          <mxGeometry width="50" height="50" relative="1" as="geometry">
            <mxPoint x="520" y="640" as="sourcePoint" />
            <mxPoint x="480" y="600" as="targetPoint" />
          </mxGeometry>
        </mxCell>
        <mxCell id="31" value="" style="endArrow=none;html=1;" parent="1" edge="1">
          <mxGeometry width="50" height="50" relative="1" as="geometry">
            <mxPoint x="520" y="640" as="sourcePoint" />
            <mxPoint x="560" y="600" as="targetPoint" />
          </mxGeometry>
        </mxCell>
        <mxCell id="32" value="" style="endArrow=none;html=1;" parent="1" edge="1">
          <mxGeometry width="50" height="50" relative="1" as="geometry">
            <mxPoint x="560" y="680" as="sourcePoint" />
            <mxPoint x="640.89" y="600" as="targetPoint" />
          </mxGeometry>
        </mxCell>
        <mxCell id="33" value="" style="endArrow=none;html=1;" parent="1" edge="1">
          <mxGeometry width="50" height="50" relative="1" as="geometry">
            <mxPoint x="560" y="680" as="sourcePoint" />
            <mxPoint x="480" y="680" as="targetPoint" />
          </mxGeometry>
        </mxCell>
        <mxCell id="34" value="" style="endArrow=none;html=1;" parent="1" edge="1">
          <mxGeometry width="50" height="50" relative="1" as="geometry">
            <mxPoint x="400" y="600" as="sourcePoint" />
            <mxPoint x="480" y="680" as="targetPoint" />
          </mxGeometry>
        </mxCell>
        <mxCell id="35" value="&lt;b&gt;&lt;font face=&quot;Comic Sans MS&quot;&gt;ALU&lt;/font&gt;&lt;/b&gt;" style="text;html=1;align=center;verticalAlign=middle;resizable=0;points=[];autosize=1;strokeColor=none;fillColor=none;" parent="1" vertex="1">
          <mxGeometry x="495" y="645" width="50" height="30" as="geometry" />
        </mxCell>
        <mxCell id="36" value="" style="endArrow=classic;html=1;fontFamily=Comic Sans MS;fontSize=12;strokeWidth=1;" parent="1" edge="1">
          <mxGeometry width="50" height="50" relative="1" as="geometry">
            <mxPoint x="600" y="560" as="sourcePoint" />
            <mxPoint x="600" y="600" as="targetPoint" />
          </mxGeometry>
        </mxCell>
        <mxCell id="38" value="" style="endArrow=classic;html=1;fontFamily=Comic Sans MS;fontSize=12;strokeWidth=1;" parent="1" edge="1">
          <mxGeometry width="50" height="50" relative="1" as="geometry">
            <mxPoint x="440" y="560" as="sourcePoint" />
            <mxPoint x="440" y="600" as="targetPoint" />
          </mxGeometry>
        </mxCell>
        <mxCell id="39" value="&lt;font face=&quot;Comic Sans MS&quot;&gt;&lt;b&gt;B&lt;font style=&quot;font-size: 8px;&quot;&gt;i&lt;/font&gt;&lt;/b&gt;&lt;/font&gt;" style="text;html=1;align=center;verticalAlign=middle;resizable=0;points=[];autosize=1;strokeColor=none;fillColor=none;" parent="1" vertex="1">
          <mxGeometry x="605" y="410" width="30" height="30" as="geometry" />
        </mxCell>
        <mxCell id="40" value="&lt;font face=&quot;Comic Sans MS&quot;&gt;&lt;b&gt;&lt;font style=&quot;&quot;&gt;A&lt;/font&gt;&lt;font style=&quot;font-size: 8px;&quot;&gt;i&lt;/font&gt;&lt;/b&gt;&lt;/font&gt;" style="text;html=1;align=center;verticalAlign=middle;resizable=0;points=[];autosize=1;strokeColor=none;fillColor=none;" parent="1" vertex="1">
          <mxGeometry x="425" y="530" width="30" height="30" as="geometry" />
        </mxCell>
        <mxCell id="41" value="&lt;font face=&quot;Comic Sans MS&quot;&gt;&lt;b&gt;输入信号（操作数）&lt;/b&gt;&lt;/font&gt;" style="text;html=1;align=center;verticalAlign=middle;resizable=0;points=[];autosize=1;strokeColor=none;fillColor=none;" parent="1" vertex="1">
          <mxGeometry x="365" y="450" width="130" height="30" as="geometry" />
        </mxCell>
        <mxCell id="42" value="&lt;font face=&quot;Comic Sans MS&quot;&gt;&lt;b&gt;输出信号F&lt;br&gt;（运算结果）&lt;/b&gt;&lt;/font&gt;" style="text;html=1;align=center;verticalAlign=middle;resizable=0;points=[];autosize=1;strokeColor=none;fillColor=none;" parent="1" vertex="1">
          <mxGeometry x="470" y="790" width="100" height="40" as="geometry" />
        </mxCell>
        <mxCell id="43" value="" style="endArrow=classic;html=1;fontFamily=Comic Sans MS;fontSize=12;strokeWidth=1;" parent="1" target="42" edge="1">
          <mxGeometry width="50" height="50" relative="1" as="geometry">
            <mxPoint x="520" y="680" as="sourcePoint" />
            <mxPoint x="520" y="720" as="targetPoint" />
          </mxGeometry>
        </mxCell>
        <mxCell id="44" value="" style="endArrow=classic;html=1;fontFamily=Comic Sans MS;fontSize=12;strokeWidth=1;dashed=1;" parent="1" source="47" edge="1">
          <mxGeometry width="50" height="50" relative="1" as="geometry">
            <mxPoint x="670" y="630" as="sourcePoint" />
            <mxPoint x="630" y="540" as="targetPoint" />
          </mxGeometry>
        </mxCell>
        <mxCell id="45" value="" style="endArrow=classic;html=1;fontFamily=Comic Sans MS;fontSize=12;strokeWidth=1;" parent="1" source="74" edge="1">
          <mxGeometry width="50" height="50" relative="1" as="geometry">
            <mxPoint x="680" y="640" as="sourcePoint" />
            <mxPoint x="600" y="640" as="targetPoint" />
          </mxGeometry>
        </mxCell>
        <mxCell id="77" style="edgeStyle=none;html=1;dashed=1;strokeWidth=1;fontFamily=Comic Sans MS;fontSize=8;" parent="1" source="47" target="74" edge="1">
          <mxGeometry relative="1" as="geometry" />
        </mxCell>
        <mxCell id="47" value="&lt;font face=&quot;Comic Sans MS&quot;&gt;&lt;b&gt;加(0)减(1)法控制信号Sub&lt;/b&gt;&lt;/font&gt;" style="text;html=1;align=center;verticalAlign=middle;resizable=0;points=[];autosize=1;strokeColor=default;fillColor=none;dashed=1;" parent="1" vertex="1">
          <mxGeometry x="700" y="526" width="160" height="30" as="geometry" />
        </mxCell>
        <mxCell id="48" value="" style="endArrow=classic;html=1;fontFamily=Comic Sans MS;fontSize=12;strokeWidth=1;" parent="1" edge="1">
          <mxGeometry width="50" height="50" relative="1" as="geometry">
            <mxPoint x="550" y="680" as="sourcePoint" />
            <mxPoint x="600" y="720" as="targetPoint" />
          </mxGeometry>
        </mxCell>
        <mxCell id="49" value="" style="endArrow=classic;html=1;fontFamily=Comic Sans MS;fontSize=12;strokeWidth=1;" parent="1" edge="1">
          <mxGeometry width="50" height="50" relative="1" as="geometry">
            <mxPoint x="490" y="680" as="sourcePoint" />
            <mxPoint x="440" y="720" as="targetPoint" />
          </mxGeometry>
        </mxCell>
        <mxCell id="50" value="" style="endArrow=classic;html=1;fontFamily=Comic Sans MS;fontSize=12;strokeWidth=1;" parent="1" edge="1">
          <mxGeometry width="50" height="50" relative="1" as="geometry">
            <mxPoint x="504" y="680" as="sourcePoint" />
            <mxPoint x="490" y="730" as="targetPoint" />
          </mxGeometry>
        </mxCell>
        <mxCell id="51" value="" style="endArrow=classic;html=1;fontFamily=Comic Sans MS;fontSize=12;strokeWidth=1;" parent="1" edge="1">
          <mxGeometry width="50" height="50" relative="1" as="geometry">
            <mxPoint x="536" y="680" as="sourcePoint" />
            <mxPoint x="550" y="730" as="targetPoint" />
          </mxGeometry>
        </mxCell>
        <mxCell id="53" value="&lt;font face=&quot;Comic Sans MS&quot;&gt;&lt;b&gt;OF&lt;br&gt;溢出标志&lt;br&gt;(溢出为1)&lt;br&gt;&lt;/b&gt;&lt;/font&gt;" style="text;html=1;align=center;verticalAlign=middle;resizable=0;points=[];autosize=1;strokeColor=none;fillColor=none;" parent="1" vertex="1">
          <mxGeometry x="390" y="705" width="80" height="60" as="geometry" />
        </mxCell>
        <mxCell id="54" value="&lt;font face=&quot;Comic Sans MS&quot;&gt;&lt;b&gt;CF&lt;br&gt;进位/借位标志&lt;br&gt;(进位/借位为1)&lt;br&gt;&lt;/b&gt;&lt;/font&gt;" style="text;html=1;align=center;verticalAlign=middle;resizable=0;points=[];autosize=1;strokeColor=none;fillColor=none;" parent="1" vertex="1">
          <mxGeometry x="560" y="705" width="110" height="60" as="geometry" />
        </mxCell>
        <mxCell id="55" value="&lt;font face=&quot;Comic Sans MS&quot;&gt;&lt;b&gt;SF&lt;br&gt;符号标志&lt;br&gt;(负数为1)&lt;br&gt;&lt;/b&gt;&lt;/font&gt;" style="text;html=1;align=center;verticalAlign=middle;resizable=0;points=[];autosize=1;strokeColor=none;fillColor=none;" parent="1" vertex="1">
          <mxGeometry x="450" y="730" width="80" height="60" as="geometry" />
        </mxCell>
        <mxCell id="57" value="&lt;font face=&quot;Comic Sans MS&quot;&gt;&lt;b&gt;ZF&lt;br&gt;零标志&lt;br&gt;(得零为1)&lt;br&gt;&lt;/b&gt;&lt;/font&gt;" style="text;html=1;align=center;verticalAlign=middle;resizable=0;points=[];autosize=1;strokeColor=none;fillColor=none;" parent="1" vertex="1">
          <mxGeometry x="510" y="730" width="80" height="60" as="geometry" />
        </mxCell>
        <mxCell id="59" value="" style="endArrow=none;html=1;" parent="1" edge="1">
          <mxGeometry width="50" height="50" relative="1" as="geometry">
            <mxPoint x="580" y="560" as="sourcePoint" />
            <mxPoint x="620" y="560" as="targetPoint" />
          </mxGeometry>
        </mxCell>
        <mxCell id="60" value="" style="endArrow=none;html=1;" parent="1" edge="1">
          <mxGeometry width="50" height="50" relative="1" as="geometry">
            <mxPoint x="640" y="520" as="sourcePoint" />
            <mxPoint x="620" y="560" as="targetPoint" />
          </mxGeometry>
        </mxCell>
        <mxCell id="61" value="" style="endArrow=none;html=1;" parent="1" edge="1">
          <mxGeometry width="50" height="50" relative="1" as="geometry">
            <mxPoint x="560" y="520" as="sourcePoint" />
            <mxPoint x="580" y="560" as="targetPoint" />
          </mxGeometry>
        </mxCell>
        <mxCell id="62" value="" style="endArrow=none;html=1;" parent="1" edge="1">
          <mxGeometry width="50" height="50" relative="1" as="geometry">
            <mxPoint x="560" y="520" as="sourcePoint" />
            <mxPoint x="640" y="520" as="targetPoint" />
          </mxGeometry>
        </mxCell>
        <mxCell id="63" value="&lt;font face=&quot;Comic Sans MS&quot;&gt;&lt;b&gt;MUX&lt;/b&gt;&lt;/font&gt;" style="text;html=1;align=center;verticalAlign=middle;resizable=0;points=[];autosize=1;strokeColor=none;fillColor=none;" parent="1" vertex="1">
          <mxGeometry x="575" y="526" width="50" height="30" as="geometry" />
        </mxCell>
        <mxCell id="64" value="" style="endArrow=classic;html=1;fontFamily=Comic Sans MS;fontSize=12;strokeWidth=1;" parent="1" edge="1">
          <mxGeometry width="50" height="50" relative="1" as="geometry">
            <mxPoint x="620" y="440" as="sourcePoint" />
            <mxPoint x="620" y="520" as="targetPoint" />
          </mxGeometry>
        </mxCell>
        <mxCell id="65" value="" style="endArrow=classic;html=1;fontFamily=Comic Sans MS;fontSize=12;strokeWidth=1;" parent="1" edge="1">
          <mxGeometry width="50" height="50" relative="1" as="geometry">
            <mxPoint x="580" y="500" as="sourcePoint" />
            <mxPoint x="580" y="520" as="targetPoint" />
          </mxGeometry>
        </mxCell>
        <mxCell id="66" value="" style="endArrow=none;html=1;" parent="1" edge="1">
          <mxGeometry width="50" height="50" relative="1" as="geometry">
            <mxPoint x="580" y="460" as="sourcePoint" />
            <mxPoint x="620" y="460" as="targetPoint" />
          </mxGeometry>
        </mxCell>
        <mxCell id="67" value="" style="endArrow=none;html=1;" parent="1" edge="1">
          <mxGeometry width="50" height="50" relative="1" as="geometry">
            <mxPoint x="590" y="478" as="sourcePoint" />
            <mxPoint x="580" y="498" as="targetPoint" />
          </mxGeometry>
        </mxCell>
        <mxCell id="68" value="" style="endArrow=none;html=1;" parent="1" edge="1">
          <mxGeometry width="50" height="50" relative="1" as="geometry">
            <mxPoint x="570" y="478" as="sourcePoint" />
            <mxPoint x="580" y="498" as="targetPoint" />
          </mxGeometry>
        </mxCell>
        <mxCell id="69" value="" style="endArrow=none;html=1;" parent="1" edge="1">
          <mxGeometry width="50" height="50" relative="1" as="geometry">
            <mxPoint x="570" y="478" as="sourcePoint" />
            <mxPoint x="590" y="478" as="targetPoint" />
          </mxGeometry>
        </mxCell>
        <mxCell id="70" value="" style="ellipse;whiteSpace=wrap;html=1;fontFamily=Comic Sans MS;fontSize=8;" parent="1" vertex="1">
          <mxGeometry x="578" y="496" width="4" height="4" as="geometry" />
        </mxCell>
        <mxCell id="72" value="" style="endArrow=none;html=1;" parent="1" edge="1">
          <mxGeometry width="50" height="50" relative="1" as="geometry">
            <mxPoint x="580" y="460" as="sourcePoint" />
            <mxPoint x="580" y="478" as="targetPoint" />
          </mxGeometry>
        </mxCell>
        <mxCell id="73" value="" style="endArrow=classic;html=1;fontFamily=Comic Sans MS;fontSize=12;strokeWidth=1;" parent="1" target="75" edge="1">
          <mxGeometry width="50" height="50" relative="1" as="geometry">
            <mxPoint x="440" y="640" as="sourcePoint" />
            <mxPoint x="360" y="640" as="targetPoint" />
          </mxGeometry>
        </mxCell>
        <mxCell id="74" value="&lt;font face=&quot;Comic Sans MS&quot;&gt;&lt;b&gt;Cin&lt;/b&gt;&lt;/font&gt;" style="text;html=1;align=center;verticalAlign=middle;resizable=0;points=[];autosize=1;strokeColor=none;fillColor=none;" parent="1" vertex="1">
          <mxGeometry x="680" y="626" width="40" height="30" as="geometry" />
        </mxCell>
        <mxCell id="75" value="&lt;font face=&quot;Comic Sans MS&quot;&gt;&lt;b&gt;Cout&lt;/b&gt;&lt;/font&gt;" style="text;html=1;align=center;verticalAlign=middle;resizable=0;points=[];autosize=1;strokeColor=none;fillColor=none;" parent="1" vertex="1">
          <mxGeometry x="310" y="626" width="50" height="30" as="geometry" />
        </mxCell>
        <mxCell id="76" value="&lt;font face=&quot;Comic Sans MS&quot;&gt;&lt;b&gt;全部取反&lt;/b&gt;&lt;/font&gt;" style="text;html=1;align=center;verticalAlign=middle;resizable=0;points=[];autosize=1;strokeColor=none;fillColor=none;" parent="1" vertex="1">
          <mxGeometry x="508" y="470" width="70" height="30" as="geometry" />
        </mxCell>
        <mxCell id="78" value="&lt;font face=&quot;Comic Sans MS&quot;&gt;&lt;b&gt;传递+1&lt;/b&gt;&lt;/font&gt;" style="text;html=1;align=center;verticalAlign=middle;resizable=0;points=[];autosize=1;strokeColor=none;fillColor=none;" parent="1" vertex="1">
          <mxGeometry x="725" y="580" width="60" height="30" as="geometry" />
        </mxCell>
        <mxCell id="79" value="&lt;font face=&quot;Comic Sans MS&quot;&gt;&lt;b&gt;+&lt;/b&gt;&lt;/font&gt;" style="text;html=1;align=center;verticalAlign=middle;resizable=0;points=[];autosize=1;strokeColor=none;fillColor=none;" parent="1" vertex="1">
          <mxGeometry x="616" y="496" width="30" height="30" as="geometry" />
        </mxCell>
        <mxCell id="80" value="&lt;font face=&quot;Comic Sans MS&quot;&gt;&lt;b&gt;-&lt;/b&gt;&lt;/font&gt;" style="text;html=1;align=center;verticalAlign=middle;resizable=0;points=[];autosize=1;strokeColor=none;fillColor=none;" parent="1" vertex="1">
          <mxGeometry x="576" y="496" width="30" height="30" as="geometry" />
        </mxCell>
        <mxCell id="ssaRUBrVBBdNvTdfM8SY-89" style="rounded=0;orthogonalLoop=1;jettySize=auto;html=1;entryX=0.25;entryY=1;entryDx=0;entryDy=0;strokeWidth=2;" edge="1" parent="1" target="ssaRUBrVBBdNvTdfM8SY-85">
          <mxGeometry relative="1" as="geometry">
            <mxPoint x="500" y="1000" as="sourcePoint" />
          </mxGeometry>
        </mxCell>
        <mxCell id="ssaRUBrVBBdNvTdfM8SY-91" style="edgeStyle=orthogonalEdgeStyle;rounded=0;orthogonalLoop=1;jettySize=auto;html=1;exitX=0.5;exitY=0;exitDx=0;exitDy=0;entryX=0.5;entryY=0;entryDx=0;entryDy=0;strokeWidth=2;" edge="1" parent="1" target="ssaRUBrVBBdNvTdfM8SY-85">
          <mxGeometry relative="1" as="geometry">
            <mxPoint x="480" y="1120" as="sourcePoint" />
          </mxGeometry>
        </mxCell>
        <mxCell id="ssaRUBrVBBdNvTdfM8SY-90" style="rounded=0;orthogonalLoop=1;jettySize=auto;html=1;exitX=0.75;exitY=1;exitDx=0;exitDy=0;strokeWidth=2;" edge="1" parent="1" source="ssaRUBrVBBdNvTdfM8SY-85">
          <mxGeometry relative="1" as="geometry">
            <mxPoint x="460" y="1000" as="targetPoint" />
          </mxGeometry>
        </mxCell>
        <mxCell id="ssaRUBrVBBdNvTdfM8SY-88" style="edgeStyle=orthogonalEdgeStyle;rounded=0;orthogonalLoop=1;jettySize=auto;html=1;exitX=0;exitY=0.75;exitDx=0;exitDy=0;entryX=1;entryY=0.75;entryDx=0;entryDy=0;strokeWidth=2;" edge="1" parent="1" source="ssaRUBrVBBdNvTdfM8SY-81">
          <mxGeometry relative="1" as="geometry">
            <mxPoint x="560" y="990" as="targetPoint" />
          </mxGeometry>
        </mxCell>
        <mxCell id="ssaRUBrVBBdNvTdfM8SY-95" value="X:被乘数" style="text;html=1;align=center;verticalAlign=middle;resizable=0;points=[];autosize=1;strokeColor=none;fillColor=none;strokeWidth=2;fontFamily=Comic Sans MS;fontStyle=1" vertex="1" parent="1">
          <mxGeometry x="360" y="1160" width="70" height="30" as="geometry" />
        </mxCell>
        <mxCell id="ssaRUBrVBBdNvTdfM8SY-97" value="ACC:乘积高位" style="text;html=1;align=center;verticalAlign=middle;resizable=0;points=[];autosize=1;strokeColor=none;fillColor=none;strokeWidth=2;fontFamily=Comic Sans MS;fontStyle=1" vertex="1" parent="1">
          <mxGeometry x="355" y="930" width="100" height="30" as="geometry" />
        </mxCell>
        <mxCell id="ssaRUBrVBBdNvTdfM8SY-98" value="MQ:乘积低位、乘数" style="text;html=1;align=center;verticalAlign=middle;resizable=0;points=[];autosize=1;strokeColor=none;fillColor=none;strokeWidth=2;fontFamily=Comic Sans MS;fontStyle=1" vertex="1" parent="1">
          <mxGeometry x="600" y="930" width="130" height="30" as="geometry" />
        </mxCell>
        <mxCell id="ssaRUBrVBBdNvTdfM8SY-99" value="" style="group" vertex="1" connectable="0" parent="1">
          <mxGeometry x="440" y="1020" width="80" height="40" as="geometry" />
        </mxCell>
        <mxCell id="ssaRUBrVBBdNvTdfM8SY-85" value="" style="shape=trapezoid;perimeter=trapezoidPerimeter;whiteSpace=wrap;html=1;fixedSize=1;rotation=-180;strokeWidth=2;fontFamily=Comic Sans MS;fontStyle=1" vertex="1" parent="ssaRUBrVBBdNvTdfM8SY-99">
          <mxGeometry width="80" height="40" as="geometry" />
        </mxCell>
        <mxCell id="ssaRUBrVBBdNvTdfM8SY-86" value="ALU" style="text;html=1;align=center;verticalAlign=middle;resizable=0;points=[];autosize=1;strokeColor=none;fillColor=none;strokeWidth=2;fontFamily=Comic Sans MS;fontStyle=1" vertex="1" parent="ssaRUBrVBBdNvTdfM8SY-99">
          <mxGeometry x="15" y="5" width="50" height="30" as="geometry" />
        </mxCell>
        <mxCell id="ssaRUBrVBBdNvTdfM8SY-111" value="" style="group;fillColor=#a20025;fontColor=#ffffff;strokeColor=#6F0000;gradientColor=none;container=0;" vertex="1" connectable="0" parent="1">
          <mxGeometry x="360" y="960" width="40" height="40" as="geometry" />
        </mxCell>
        <mxCell id="ssaRUBrVBBdNvTdfM8SY-112" value="" style="group" vertex="1" connectable="0" parent="1">
          <mxGeometry x="520" y="960" width="40" height="40" as="geometry" />
        </mxCell>
        <mxCell id="ssaRUBrVBBdNvTdfM8SY-113" value="" style="whiteSpace=wrap;html=1;strokeWidth=2;fontFamily=Comic Sans MS;fontStyle=1" vertex="1" parent="ssaRUBrVBBdNvTdfM8SY-112">
          <mxGeometry width="40" height="40" as="geometry" />
        </mxCell>
        <mxCell id="ssaRUBrVBBdNvTdfM8SY-114" value="0" style="text;html=1;align=center;verticalAlign=middle;resizable=0;points=[];autosize=1;strokeColor=none;fillColor=none;strokeWidth=2;fontFamily=Comic Sans MS;fontStyle=1" vertex="1" parent="ssaRUBrVBBdNvTdfM8SY-112">
          <mxGeometry x="5" y="5" width="30" height="30" as="geometry" />
        </mxCell>
        <mxCell id="ssaRUBrVBBdNvTdfM8SY-115" value="" style="group" vertex="1" connectable="0" parent="1">
          <mxGeometry x="480" y="960" width="40" height="40" as="geometry" />
        </mxCell>
        <mxCell id="ssaRUBrVBBdNvTdfM8SY-116" value="" style="whiteSpace=wrap;html=1;strokeWidth=2;fontFamily=Comic Sans MS;fontStyle=1" vertex="1" parent="ssaRUBrVBBdNvTdfM8SY-115">
          <mxGeometry width="40" height="40" as="geometry" />
        </mxCell>
        <mxCell id="ssaRUBrVBBdNvTdfM8SY-117" value="0" style="text;html=1;align=center;verticalAlign=middle;resizable=0;points=[];autosize=1;strokeColor=none;fillColor=none;strokeWidth=2;fontFamily=Comic Sans MS;fontStyle=1" vertex="1" parent="ssaRUBrVBBdNvTdfM8SY-115">
          <mxGeometry x="5" y="5" width="30" height="30" as="geometry" />
        </mxCell>
        <mxCell id="ssaRUBrVBBdNvTdfM8SY-118" value="" style="group" vertex="1" connectable="0" parent="1">
          <mxGeometry x="440" y="960" width="40" height="40" as="geometry" />
        </mxCell>
        <mxCell id="ssaRUBrVBBdNvTdfM8SY-119" value="" style="whiteSpace=wrap;html=1;strokeWidth=2;fontFamily=Comic Sans MS;fontStyle=1" vertex="1" parent="ssaRUBrVBBdNvTdfM8SY-118">
          <mxGeometry width="40" height="40" as="geometry" />
        </mxCell>
        <mxCell id="ssaRUBrVBBdNvTdfM8SY-120" value="0" style="text;html=1;align=center;verticalAlign=middle;resizable=0;points=[];autosize=1;strokeColor=none;fillColor=none;strokeWidth=2;fontFamily=Comic Sans MS;fontStyle=1" vertex="1" parent="ssaRUBrVBBdNvTdfM8SY-118">
          <mxGeometry x="5" y="5" width="30" height="30" as="geometry" />
        </mxCell>
        <mxCell id="ssaRUBrVBBdNvTdfM8SY-121" value="" style="group" vertex="1" connectable="0" parent="1">
          <mxGeometry x="400" y="960" width="40" height="40" as="geometry" />
        </mxCell>
        <mxCell id="ssaRUBrVBBdNvTdfM8SY-122" value="" style="whiteSpace=wrap;html=1;strokeWidth=2;fontFamily=Comic Sans MS;fontStyle=1" vertex="1" parent="ssaRUBrVBBdNvTdfM8SY-121">
          <mxGeometry width="40" height="40" as="geometry" />
        </mxCell>
        <mxCell id="ssaRUBrVBBdNvTdfM8SY-123" value="0" style="text;html=1;align=center;verticalAlign=middle;resizable=0;points=[];autosize=1;strokeColor=none;fillColor=none;strokeWidth=2;fontFamily=Comic Sans MS;fontStyle=1" vertex="1" parent="ssaRUBrVBBdNvTdfM8SY-121">
          <mxGeometry x="5" y="5" width="30" height="30" as="geometry" />
        </mxCell>
        <mxCell id="ssaRUBrVBBdNvTdfM8SY-125" value="" style="group;fillColor=#a20025;fontColor=#ffffff;strokeColor=#6F0000;gradientColor=none;container=0;" vertex="1" connectable="0" parent="1">
          <mxGeometry x="600" y="960" width="40" height="40" as="geometry" />
        </mxCell>
        <mxCell id="ssaRUBrVBBdNvTdfM8SY-126" value="" style="group" vertex="1" connectable="0" parent="1">
          <mxGeometry x="640" y="960" width="40" height="40" as="geometry" />
        </mxCell>
        <mxCell id="ssaRUBrVBBdNvTdfM8SY-127" value="" style="whiteSpace=wrap;html=1;strokeWidth=2;fontFamily=Comic Sans MS;fontStyle=1" vertex="1" parent="ssaRUBrVBBdNvTdfM8SY-126">
          <mxGeometry width="40" height="40" as="geometry" />
        </mxCell>
        <mxCell id="ssaRUBrVBBdNvTdfM8SY-128" value="1" style="text;html=1;align=center;verticalAlign=middle;resizable=0;points=[];autosize=1;strokeColor=none;fillColor=none;strokeWidth=2;fontFamily=Comic Sans MS;fontStyle=1" vertex="1" parent="ssaRUBrVBBdNvTdfM8SY-126">
          <mxGeometry x="5" y="5" width="30" height="30" as="geometry" />
        </mxCell>
        <mxCell id="ssaRUBrVBBdNvTdfM8SY-130" value="" style="group" vertex="1" connectable="0" parent="1">
          <mxGeometry x="680" y="960" width="40" height="40" as="geometry" />
        </mxCell>
        <mxCell id="ssaRUBrVBBdNvTdfM8SY-131" value="" style="whiteSpace=wrap;html=1;strokeWidth=2;fontFamily=Comic Sans MS;fontStyle=1" vertex="1" parent="ssaRUBrVBBdNvTdfM8SY-130">
          <mxGeometry width="40" height="40" as="geometry" />
        </mxCell>
        <mxCell id="ssaRUBrVBBdNvTdfM8SY-132" value="0" style="text;html=1;align=center;verticalAlign=middle;resizable=0;points=[];autosize=1;strokeColor=none;fillColor=none;strokeWidth=2;fontFamily=Comic Sans MS;fontStyle=1" vertex="1" parent="ssaRUBrVBBdNvTdfM8SY-130">
          <mxGeometry x="5" y="5" width="30" height="30" as="geometry" />
        </mxCell>
        <mxCell id="ssaRUBrVBBdNvTdfM8SY-133" value="" style="group" vertex="1" connectable="0" parent="1">
          <mxGeometry x="720" y="960" width="40" height="40" as="geometry" />
        </mxCell>
        <mxCell id="ssaRUBrVBBdNvTdfM8SY-134" value="" style="whiteSpace=wrap;html=1;strokeWidth=2;fontFamily=Comic Sans MS;fontStyle=1" vertex="1" parent="ssaRUBrVBBdNvTdfM8SY-133">
          <mxGeometry width="40" height="40" as="geometry" />
        </mxCell>
        <mxCell id="ssaRUBrVBBdNvTdfM8SY-135" value="1" style="text;html=1;align=center;verticalAlign=middle;resizable=0;points=[];autosize=1;strokeColor=none;fillColor=none;strokeWidth=2;fontFamily=Comic Sans MS;fontStyle=1" vertex="1" parent="ssaRUBrVBBdNvTdfM8SY-133">
          <mxGeometry x="5" y="5" width="30" height="30" as="geometry" />
        </mxCell>
        <mxCell id="ssaRUBrVBBdNvTdfM8SY-136" value="" style="group;fillColor=#d80073;strokeColor=#A50040;fontColor=#ffffff;" vertex="1" connectable="0" parent="1">
          <mxGeometry x="760" y="960" width="40" height="40" as="geometry" />
        </mxCell>
        <mxCell id="ssaRUBrVBBdNvTdfM8SY-137" value="" style="whiteSpace=wrap;html=1;strokeWidth=2;fontFamily=Comic Sans MS;fontStyle=1;fillColor=#d80073;fontColor=#ffffff;strokeColor=#A50040;" vertex="1" parent="ssaRUBrVBBdNvTdfM8SY-136">
          <mxGeometry width="40" height="40" as="geometry" />
        </mxCell>
        <mxCell id="ssaRUBrVBBdNvTdfM8SY-138" value="1" style="text;html=1;align=center;verticalAlign=middle;resizable=0;points=[];autosize=1;strokeColor=none;fillColor=none;strokeWidth=2;fontFamily=Comic Sans MS;fontStyle=1" vertex="1" parent="ssaRUBrVBBdNvTdfM8SY-136">
          <mxGeometry x="5" y="5" width="30" height="30" as="geometry" />
        </mxCell>
        <mxCell id="ssaRUBrVBBdNvTdfM8SY-139" value="" style="group;fillColor=#a20025;fontColor=#ffffff;strokeColor=#6F0000;gradientColor=none;container=0;" vertex="1" connectable="0" parent="1">
          <mxGeometry x="360" y="1120" width="40" height="40" as="geometry" />
        </mxCell>
        <mxCell id="ssaRUBrVBBdNvTdfM8SY-140" value="" style="group" vertex="1" connectable="0" parent="1">
          <mxGeometry x="400" y="1120" width="40" height="40" as="geometry" />
        </mxCell>
        <mxCell id="ssaRUBrVBBdNvTdfM8SY-141" value="" style="whiteSpace=wrap;html=1;strokeWidth=2;fontFamily=Comic Sans MS;fontStyle=1" vertex="1" parent="ssaRUBrVBBdNvTdfM8SY-140">
          <mxGeometry width="40" height="40" as="geometry" />
        </mxCell>
        <mxCell id="ssaRUBrVBBdNvTdfM8SY-142" value="1" style="text;html=1;align=center;verticalAlign=middle;resizable=0;points=[];autosize=1;strokeColor=none;fillColor=none;strokeWidth=2;fontFamily=Comic Sans MS;fontStyle=1" vertex="1" parent="ssaRUBrVBBdNvTdfM8SY-140">
          <mxGeometry x="5" y="5" width="30" height="30" as="geometry" />
        </mxCell>
        <mxCell id="ssaRUBrVBBdNvTdfM8SY-143" value="" style="group" vertex="1" connectable="0" parent="1">
          <mxGeometry x="440" y="1120" width="40" height="40" as="geometry" />
        </mxCell>
        <mxCell id="ssaRUBrVBBdNvTdfM8SY-144" value="" style="whiteSpace=wrap;html=1;strokeWidth=2;fontFamily=Comic Sans MS;fontStyle=1" vertex="1" parent="ssaRUBrVBBdNvTdfM8SY-143">
          <mxGeometry width="40" height="40" as="geometry" />
        </mxCell>
        <mxCell id="ssaRUBrVBBdNvTdfM8SY-145" value="1" style="text;html=1;align=center;verticalAlign=middle;resizable=0;points=[];autosize=1;strokeColor=none;fillColor=none;strokeWidth=2;fontFamily=Comic Sans MS;fontStyle=1" vertex="1" parent="ssaRUBrVBBdNvTdfM8SY-143">
          <mxGeometry x="5" y="5" width="30" height="30" as="geometry" />
        </mxCell>
        <mxCell id="ssaRUBrVBBdNvTdfM8SY-146" value="" style="group" vertex="1" connectable="0" parent="1">
          <mxGeometry x="480" y="1120" width="40" height="40" as="geometry" />
        </mxCell>
        <mxCell id="ssaRUBrVBBdNvTdfM8SY-147" value="" style="whiteSpace=wrap;html=1;strokeWidth=2;fontFamily=Comic Sans MS;fontStyle=1" vertex="1" parent="ssaRUBrVBBdNvTdfM8SY-146">
          <mxGeometry width="40" height="40" as="geometry" />
        </mxCell>
        <mxCell id="ssaRUBrVBBdNvTdfM8SY-148" value="0" style="text;html=1;align=center;verticalAlign=middle;resizable=0;points=[];autosize=1;strokeColor=none;fillColor=none;strokeWidth=2;fontFamily=Comic Sans MS;fontStyle=1" vertex="1" parent="ssaRUBrVBBdNvTdfM8SY-146">
          <mxGeometry x="5" y="5" width="30" height="30" as="geometry" />
        </mxCell>
        <mxCell id="ssaRUBrVBBdNvTdfM8SY-149" value="" style="group" vertex="1" connectable="0" parent="1">
          <mxGeometry x="520" y="1120" width="40" height="40" as="geometry" />
        </mxCell>
        <mxCell id="ssaRUBrVBBdNvTdfM8SY-150" value="" style="whiteSpace=wrap;html=1;strokeWidth=2;fontFamily=Comic Sans MS;fontStyle=1" vertex="1" parent="ssaRUBrVBBdNvTdfM8SY-149">
          <mxGeometry width="40" height="40" as="geometry" />
        </mxCell>
        <mxCell id="ssaRUBrVBBdNvTdfM8SY-151" value="1" style="text;html=1;align=center;verticalAlign=middle;resizable=0;points=[];autosize=1;strokeColor=none;fillColor=none;strokeWidth=2;fontFamily=Comic Sans MS;fontStyle=1" vertex="1" parent="ssaRUBrVBBdNvTdfM8SY-149">
          <mxGeometry x="5" y="5" width="30" height="30" as="geometry" />
        </mxCell>
        <mxCell id="ssaRUBrVBBdNvTdfM8SY-81" value="" style="whiteSpace=wrap;html=1;strokeWidth=2;fontFamily=Comic Sans MS;fontStyle=1;fillColor=#a20025;fontColor=#ffffff;strokeColor=#6F0000;" vertex="1" parent="1">
          <mxGeometry x="600" y="960" width="40" height="40" as="geometry" />
        </mxCell>
        <mxCell id="ssaRUBrVBBdNvTdfM8SY-104" value="0" style="text;html=1;align=center;verticalAlign=middle;resizable=0;points=[];autosize=1;strokeColor=none;fillColor=none;strokeWidth=2;fontFamily=Comic Sans MS;fontStyle=1" vertex="1" parent="1">
          <mxGeometry x="605" y="965" width="30" height="30" as="geometry" />
        </mxCell>
        <mxCell id="ssaRUBrVBBdNvTdfM8SY-93" value="" style="whiteSpace=wrap;html=1;strokeWidth=2;fontFamily=Comic Sans MS;fontStyle=1;fillColor=#a20025;fontColor=#ffffff;strokeColor=#6F0000;" vertex="1" parent="1">
          <mxGeometry x="360" y="960" width="40" height="40" as="geometry" />
        </mxCell>
        <mxCell id="ssaRUBrVBBdNvTdfM8SY-101" value="0" style="text;html=1;align=center;verticalAlign=middle;resizable=0;points=[];autosize=1;strokeColor=none;fillColor=none;strokeWidth=2;fontFamily=Comic Sans MS;fontStyle=1" vertex="1" parent="1">
          <mxGeometry x="365" y="965" width="30" height="30" as="geometry" />
        </mxCell>
        <mxCell id="ssaRUBrVBBdNvTdfM8SY-94" value="" style="whiteSpace=wrap;html=1;strokeWidth=2;fontFamily=Comic Sans MS;fontStyle=1;fillColor=#a20025;fontColor=#ffffff;strokeColor=#6F0000;" vertex="1" parent="1">
          <mxGeometry x="360" y="1120" width="40" height="40" as="geometry" />
        </mxCell>
        <mxCell id="ssaRUBrVBBdNvTdfM8SY-103" value="0" style="text;html=1;align=center;verticalAlign=middle;resizable=0;points=[];autosize=1;strokeColor=none;fillColor=none;strokeWidth=2;fontFamily=Comic Sans MS;fontStyle=1" vertex="1" parent="1">
          <mxGeometry x="365" y="1125" width="30" height="30" as="geometry" />
        </mxCell>
        <mxCell id="ssaRUBrVBBdNvTdfM8SY-153" style="rounded=0;orthogonalLoop=1;jettySize=auto;html=1;entryX=0.25;entryY=1;entryDx=0;entryDy=0;strokeWidth=2;" edge="1" parent="1" target="ssaRUBrVBBdNvTdfM8SY-161">
          <mxGeometry relative="1" as="geometry">
            <mxPoint x="500" y="1321" as="sourcePoint" />
          </mxGeometry>
        </mxCell>
        <mxCell id="ssaRUBrVBBdNvTdfM8SY-154" style="edgeStyle=orthogonalEdgeStyle;rounded=0;orthogonalLoop=1;jettySize=auto;html=1;exitX=0.5;exitY=0;exitDx=0;exitDy=0;entryX=0.5;entryY=0;entryDx=0;entryDy=0;strokeWidth=2;" edge="1" parent="1" target="ssaRUBrVBBdNvTdfM8SY-161">
          <mxGeometry relative="1" as="geometry">
            <mxPoint x="480" y="1441" as="sourcePoint" />
          </mxGeometry>
        </mxCell>
        <mxCell id="ssaRUBrVBBdNvTdfM8SY-155" style="rounded=0;orthogonalLoop=1;jettySize=auto;html=1;exitX=0.75;exitY=1;exitDx=0;exitDy=0;strokeWidth=2;" edge="1" parent="1" source="ssaRUBrVBBdNvTdfM8SY-161">
          <mxGeometry relative="1" as="geometry">
            <mxPoint x="460" y="1321" as="targetPoint" />
          </mxGeometry>
        </mxCell>
        <mxCell id="ssaRUBrVBBdNvTdfM8SY-156" style="edgeStyle=orthogonalEdgeStyle;rounded=0;orthogonalLoop=1;jettySize=auto;html=1;exitX=0;exitY=0.75;exitDx=0;exitDy=0;entryX=1;entryY=0.75;entryDx=0;entryDy=0;strokeWidth=2;" edge="1" parent="1" source="ssaRUBrVBBdNvTdfM8SY-202">
          <mxGeometry relative="1" as="geometry">
            <mxPoint x="560" y="1311" as="targetPoint" />
          </mxGeometry>
        </mxCell>
        <mxCell id="ssaRUBrVBBdNvTdfM8SY-157" value="X:被乘数" style="text;html=1;align=center;verticalAlign=middle;resizable=0;points=[];autosize=1;strokeColor=none;fillColor=none;strokeWidth=2;fontFamily=Comic Sans MS;fontStyle=1" vertex="1" parent="1">
          <mxGeometry x="360" y="1481" width="70" height="30" as="geometry" />
        </mxCell>
        <mxCell id="ssaRUBrVBBdNvTdfM8SY-158" value="ACC:乘积高位" style="text;html=1;align=center;verticalAlign=middle;resizable=0;points=[];autosize=1;strokeColor=none;fillColor=none;strokeWidth=2;fontFamily=Comic Sans MS;fontStyle=1" vertex="1" parent="1">
          <mxGeometry x="355" y="1251" width="100" height="30" as="geometry" />
        </mxCell>
        <mxCell id="ssaRUBrVBBdNvTdfM8SY-159" value="MQ:乘积低位、乘数" style="text;html=1;align=center;verticalAlign=middle;resizable=0;points=[];autosize=1;strokeColor=none;fillColor=none;strokeWidth=2;fontFamily=Comic Sans MS;fontStyle=1" vertex="1" parent="1">
          <mxGeometry x="600" y="1251" width="130" height="30" as="geometry" />
        </mxCell>
        <mxCell id="ssaRUBrVBBdNvTdfM8SY-160" value="" style="group" vertex="1" connectable="0" parent="1">
          <mxGeometry x="440" y="1341" width="80" height="40" as="geometry" />
        </mxCell>
        <mxCell id="ssaRUBrVBBdNvTdfM8SY-161" value="" style="shape=trapezoid;perimeter=trapezoidPerimeter;whiteSpace=wrap;html=1;fixedSize=1;rotation=-180;strokeWidth=2;fontFamily=Comic Sans MS;fontStyle=1" vertex="1" parent="ssaRUBrVBBdNvTdfM8SY-160">
          <mxGeometry width="80" height="40" as="geometry" />
        </mxCell>
        <mxCell id="ssaRUBrVBBdNvTdfM8SY-162" value="ALU" style="text;html=1;align=center;verticalAlign=middle;resizable=0;points=[];autosize=1;strokeColor=none;fillColor=none;strokeWidth=2;fontFamily=Comic Sans MS;fontStyle=1" vertex="1" parent="ssaRUBrVBBdNvTdfM8SY-160">
          <mxGeometry x="15" y="5" width="50" height="30" as="geometry" />
        </mxCell>
        <mxCell id="ssaRUBrVBBdNvTdfM8SY-163" value="" style="group;fillColor=#a20025;fontColor=#ffffff;strokeColor=#6F0000;gradientColor=none;container=0;" vertex="1" connectable="0" parent="1">
          <mxGeometry x="360" y="1281" width="40" height="40" as="geometry" />
        </mxCell>
        <mxCell id="ssaRUBrVBBdNvTdfM8SY-164" value="" style="group" vertex="1" connectable="0" parent="1">
          <mxGeometry x="520" y="1281" width="40" height="40" as="geometry" />
        </mxCell>
        <mxCell id="ssaRUBrVBBdNvTdfM8SY-165" value="" style="whiteSpace=wrap;html=1;strokeWidth=2;fontFamily=Comic Sans MS;fontStyle=1" vertex="1" parent="ssaRUBrVBBdNvTdfM8SY-164">
          <mxGeometry width="40" height="40" as="geometry" />
        </mxCell>
        <mxCell id="ssaRUBrVBBdNvTdfM8SY-166" value="&lt;font color=&quot;#ff0000&quot;&gt;1&lt;/font&gt;" style="text;html=1;align=center;verticalAlign=middle;resizable=0;points=[];autosize=1;strokeColor=none;fillColor=none;strokeWidth=2;fontFamily=Comic Sans MS;fontStyle=1" vertex="1" parent="ssaRUBrVBBdNvTdfM8SY-164">
          <mxGeometry x="5" y="5" width="30" height="30" as="geometry" />
        </mxCell>
        <mxCell id="ssaRUBrVBBdNvTdfM8SY-167" value="" style="group" vertex="1" connectable="0" parent="1">
          <mxGeometry x="480" y="1281" width="40" height="40" as="geometry" />
        </mxCell>
        <mxCell id="ssaRUBrVBBdNvTdfM8SY-168" value="" style="whiteSpace=wrap;html=1;strokeWidth=2;fontFamily=Comic Sans MS;fontStyle=1" vertex="1" parent="ssaRUBrVBBdNvTdfM8SY-167">
          <mxGeometry width="40" height="40" as="geometry" />
        </mxCell>
        <mxCell id="ssaRUBrVBBdNvTdfM8SY-169" value="&lt;font color=&quot;#ff0000&quot;&gt;0&lt;/font&gt;" style="text;html=1;align=center;verticalAlign=middle;resizable=0;points=[];autosize=1;strokeColor=none;fillColor=none;strokeWidth=2;fontFamily=Comic Sans MS;fontStyle=1" vertex="1" parent="ssaRUBrVBBdNvTdfM8SY-167">
          <mxGeometry x="5" y="5" width="30" height="30" as="geometry" />
        </mxCell>
        <mxCell id="ssaRUBrVBBdNvTdfM8SY-170" value="" style="group" vertex="1" connectable="0" parent="1">
          <mxGeometry x="440" y="1281" width="40" height="40" as="geometry" />
        </mxCell>
        <mxCell id="ssaRUBrVBBdNvTdfM8SY-171" value="" style="whiteSpace=wrap;html=1;strokeWidth=2;fontFamily=Comic Sans MS;fontStyle=1" vertex="1" parent="ssaRUBrVBBdNvTdfM8SY-170">
          <mxGeometry width="40" height="40" as="geometry" />
        </mxCell>
        <mxCell id="ssaRUBrVBBdNvTdfM8SY-172" value="&lt;font color=&quot;#ff0000&quot;&gt;1&lt;/font&gt;" style="text;html=1;align=center;verticalAlign=middle;resizable=0;points=[];autosize=1;strokeColor=none;fillColor=none;strokeWidth=2;fontFamily=Comic Sans MS;fontStyle=1" vertex="1" parent="ssaRUBrVBBdNvTdfM8SY-170">
          <mxGeometry x="5" y="5" width="30" height="30" as="geometry" />
        </mxCell>
        <mxCell id="ssaRUBrVBBdNvTdfM8SY-173" value="" style="group" vertex="1" connectable="0" parent="1">
          <mxGeometry x="400" y="1281" width="40" height="40" as="geometry" />
        </mxCell>
        <mxCell id="ssaRUBrVBBdNvTdfM8SY-174" value="" style="whiteSpace=wrap;html=1;strokeWidth=2;fontFamily=Comic Sans MS;fontStyle=1" vertex="1" parent="ssaRUBrVBBdNvTdfM8SY-173">
          <mxGeometry width="40" height="40" as="geometry" />
        </mxCell>
        <mxCell id="ssaRUBrVBBdNvTdfM8SY-175" value="&lt;font color=&quot;#ff0000&quot;&gt;1&lt;/font&gt;" style="text;html=1;align=center;verticalAlign=middle;resizable=0;points=[];autosize=1;strokeColor=none;fillColor=none;strokeWidth=2;fontFamily=Comic Sans MS;fontStyle=1" vertex="1" parent="ssaRUBrVBBdNvTdfM8SY-173">
          <mxGeometry x="5" y="5" width="30" height="30" as="geometry" />
        </mxCell>
        <mxCell id="ssaRUBrVBBdNvTdfM8SY-176" value="" style="group;fillColor=#a20025;fontColor=#ffffff;strokeColor=#6F0000;gradientColor=none;container=0;" vertex="1" connectable="0" parent="1">
          <mxGeometry x="600" y="1281" width="40" height="40" as="geometry" />
        </mxCell>
        <mxCell id="ssaRUBrVBBdNvTdfM8SY-177" value="" style="group" vertex="1" connectable="0" parent="1">
          <mxGeometry x="640" y="1281" width="40" height="40" as="geometry" />
        </mxCell>
        <mxCell id="ssaRUBrVBBdNvTdfM8SY-178" value="" style="whiteSpace=wrap;html=1;strokeWidth=2;fontFamily=Comic Sans MS;fontStyle=1" vertex="1" parent="ssaRUBrVBBdNvTdfM8SY-177">
          <mxGeometry width="40" height="40" as="geometry" />
        </mxCell>
        <mxCell id="ssaRUBrVBBdNvTdfM8SY-179" value="1" style="text;html=1;align=center;verticalAlign=middle;resizable=0;points=[];autosize=1;strokeColor=none;fillColor=none;strokeWidth=2;fontFamily=Comic Sans MS;fontStyle=1" vertex="1" parent="ssaRUBrVBBdNvTdfM8SY-177">
          <mxGeometry x="5" y="5" width="30" height="30" as="geometry" />
        </mxCell>
        <mxCell id="ssaRUBrVBBdNvTdfM8SY-180" value="" style="group" vertex="1" connectable="0" parent="1">
          <mxGeometry x="680" y="1281" width="40" height="40" as="geometry" />
        </mxCell>
        <mxCell id="ssaRUBrVBBdNvTdfM8SY-181" value="" style="whiteSpace=wrap;html=1;strokeWidth=2;fontFamily=Comic Sans MS;fontStyle=1" vertex="1" parent="ssaRUBrVBBdNvTdfM8SY-180">
          <mxGeometry width="40" height="40" as="geometry" />
        </mxCell>
        <mxCell id="ssaRUBrVBBdNvTdfM8SY-182" value="0" style="text;html=1;align=center;verticalAlign=middle;resizable=0;points=[];autosize=1;strokeColor=none;fillColor=none;strokeWidth=2;fontFamily=Comic Sans MS;fontStyle=1" vertex="1" parent="ssaRUBrVBBdNvTdfM8SY-180">
          <mxGeometry x="5" y="5" width="30" height="30" as="geometry" />
        </mxCell>
        <mxCell id="ssaRUBrVBBdNvTdfM8SY-183" value="" style="group" vertex="1" connectable="0" parent="1">
          <mxGeometry x="720" y="1281" width="40" height="40" as="geometry" />
        </mxCell>
        <mxCell id="ssaRUBrVBBdNvTdfM8SY-184" value="" style="whiteSpace=wrap;html=1;strokeWidth=2;fontFamily=Comic Sans MS;fontStyle=1" vertex="1" parent="ssaRUBrVBBdNvTdfM8SY-183">
          <mxGeometry width="40" height="40" as="geometry" />
        </mxCell>
        <mxCell id="ssaRUBrVBBdNvTdfM8SY-185" value="1" style="text;html=1;align=center;verticalAlign=middle;resizable=0;points=[];autosize=1;strokeColor=none;fillColor=none;strokeWidth=2;fontFamily=Comic Sans MS;fontStyle=1" vertex="1" parent="ssaRUBrVBBdNvTdfM8SY-183">
          <mxGeometry x="5" y="5" width="30" height="30" as="geometry" />
        </mxCell>
        <mxCell id="ssaRUBrVBBdNvTdfM8SY-189" value="" style="group;fillColor=#a20025;fontColor=#ffffff;strokeColor=#6F0000;gradientColor=none;container=0;" vertex="1" connectable="0" parent="1">
          <mxGeometry x="360" y="1441" width="40" height="40" as="geometry" />
        </mxCell>
        <mxCell id="ssaRUBrVBBdNvTdfM8SY-190" value="" style="group" vertex="1" connectable="0" parent="1">
          <mxGeometry x="400" y="1441" width="40" height="40" as="geometry" />
        </mxCell>
        <mxCell id="ssaRUBrVBBdNvTdfM8SY-191" value="" style="whiteSpace=wrap;html=1;strokeWidth=2;fontFamily=Comic Sans MS;fontStyle=1" vertex="1" parent="ssaRUBrVBBdNvTdfM8SY-190">
          <mxGeometry width="40" height="40" as="geometry" />
        </mxCell>
        <mxCell id="ssaRUBrVBBdNvTdfM8SY-192" value="1" style="text;html=1;align=center;verticalAlign=middle;resizable=0;points=[];autosize=1;strokeColor=none;fillColor=none;strokeWidth=2;fontFamily=Comic Sans MS;fontStyle=1" vertex="1" parent="ssaRUBrVBBdNvTdfM8SY-190">
          <mxGeometry x="5" y="5" width="30" height="30" as="geometry" />
        </mxCell>
        <mxCell id="ssaRUBrVBBdNvTdfM8SY-193" value="" style="group" vertex="1" connectable="0" parent="1">
          <mxGeometry x="440" y="1441" width="40" height="40" as="geometry" />
        </mxCell>
        <mxCell id="ssaRUBrVBBdNvTdfM8SY-194" value="" style="whiteSpace=wrap;html=1;strokeWidth=2;fontFamily=Comic Sans MS;fontStyle=1" vertex="1" parent="ssaRUBrVBBdNvTdfM8SY-193">
          <mxGeometry width="40" height="40" as="geometry" />
        </mxCell>
        <mxCell id="ssaRUBrVBBdNvTdfM8SY-195" value="1" style="text;html=1;align=center;verticalAlign=middle;resizable=0;points=[];autosize=1;strokeColor=none;fillColor=none;strokeWidth=2;fontFamily=Comic Sans MS;fontStyle=1" vertex="1" parent="ssaRUBrVBBdNvTdfM8SY-193">
          <mxGeometry x="5" y="5" width="30" height="30" as="geometry" />
        </mxCell>
        <mxCell id="ssaRUBrVBBdNvTdfM8SY-196" value="" style="group" vertex="1" connectable="0" parent="1">
          <mxGeometry x="480" y="1441" width="40" height="40" as="geometry" />
        </mxCell>
        <mxCell id="ssaRUBrVBBdNvTdfM8SY-197" value="" style="whiteSpace=wrap;html=1;strokeWidth=2;fontFamily=Comic Sans MS;fontStyle=1" vertex="1" parent="ssaRUBrVBBdNvTdfM8SY-196">
          <mxGeometry width="40" height="40" as="geometry" />
        </mxCell>
        <mxCell id="ssaRUBrVBBdNvTdfM8SY-198" value="0" style="text;html=1;align=center;verticalAlign=middle;resizable=0;points=[];autosize=1;strokeColor=none;fillColor=none;strokeWidth=2;fontFamily=Comic Sans MS;fontStyle=1" vertex="1" parent="ssaRUBrVBBdNvTdfM8SY-196">
          <mxGeometry x="5" y="5" width="30" height="30" as="geometry" />
        </mxCell>
        <mxCell id="ssaRUBrVBBdNvTdfM8SY-199" value="" style="group" vertex="1" connectable="0" parent="1">
          <mxGeometry x="520" y="1441" width="40" height="40" as="geometry" />
        </mxCell>
        <mxCell id="ssaRUBrVBBdNvTdfM8SY-200" value="" style="whiteSpace=wrap;html=1;strokeWidth=2;fontFamily=Comic Sans MS;fontStyle=1" vertex="1" parent="ssaRUBrVBBdNvTdfM8SY-199">
          <mxGeometry width="40" height="40" as="geometry" />
        </mxCell>
        <mxCell id="ssaRUBrVBBdNvTdfM8SY-201" value="1" style="text;html=1;align=center;verticalAlign=middle;resizable=0;points=[];autosize=1;strokeColor=none;fillColor=none;strokeWidth=2;fontFamily=Comic Sans MS;fontStyle=1" vertex="1" parent="ssaRUBrVBBdNvTdfM8SY-199">
          <mxGeometry x="5" y="5" width="30" height="30" as="geometry" />
        </mxCell>
        <mxCell id="ssaRUBrVBBdNvTdfM8SY-202" value="" style="whiteSpace=wrap;html=1;strokeWidth=2;fontFamily=Comic Sans MS;fontStyle=1;fillColor=#a20025;fontColor=#ffffff;strokeColor=#6F0000;" vertex="1" parent="1">
          <mxGeometry x="600" y="1281" width="40" height="40" as="geometry" />
        </mxCell>
        <mxCell id="ssaRUBrVBBdNvTdfM8SY-203" value="0" style="text;html=1;align=center;verticalAlign=middle;resizable=0;points=[];autosize=1;strokeColor=none;fillColor=none;strokeWidth=2;fontFamily=Comic Sans MS;fontStyle=1" vertex="1" parent="1">
          <mxGeometry x="605" y="1286" width="30" height="30" as="geometry" />
        </mxCell>
        <mxCell id="ssaRUBrVBBdNvTdfM8SY-204" value="" style="whiteSpace=wrap;html=1;strokeWidth=2;fontFamily=Comic Sans MS;fontStyle=1;fillColor=#a20025;fontColor=#ffffff;strokeColor=#6F0000;" vertex="1" parent="1">
          <mxGeometry x="360" y="1281" width="40" height="40" as="geometry" />
        </mxCell>
        <mxCell id="ssaRUBrVBBdNvTdfM8SY-205" value="0" style="text;html=1;align=center;verticalAlign=middle;resizable=0;points=[];autosize=1;strokeColor=none;fillColor=none;strokeWidth=2;fontFamily=Comic Sans MS;fontStyle=1" vertex="1" parent="1">
          <mxGeometry x="365" y="1286" width="30" height="30" as="geometry" />
        </mxCell>
        <mxCell id="ssaRUBrVBBdNvTdfM8SY-206" value="" style="whiteSpace=wrap;html=1;strokeWidth=2;fontFamily=Comic Sans MS;fontStyle=1;fillColor=#a20025;fontColor=#ffffff;strokeColor=#6F0000;" vertex="1" parent="1">
          <mxGeometry x="360" y="1441" width="40" height="40" as="geometry" />
        </mxCell>
        <mxCell id="ssaRUBrVBBdNvTdfM8SY-207" value="0" style="text;html=1;align=center;verticalAlign=middle;resizable=0;points=[];autosize=1;strokeColor=none;fillColor=none;strokeWidth=2;fontFamily=Comic Sans MS;fontStyle=1" vertex="1" parent="1">
          <mxGeometry x="365" y="1446" width="30" height="30" as="geometry" />
        </mxCell>
        <mxCell id="ssaRUBrVBBdNvTdfM8SY-187" value="" style="whiteSpace=wrap;html=1;strokeWidth=2;fontFamily=Comic Sans MS;fontStyle=1;container=0;fillColor=#d80073;fontColor=#ffffff;strokeColor=#A50040;" vertex="1" parent="1">
          <mxGeometry x="760" y="1281" width="40" height="40" as="geometry" />
        </mxCell>
        <mxCell id="ssaRUBrVBBdNvTdfM8SY-188" value="1" style="text;html=1;align=center;verticalAlign=middle;resizable=0;points=[];autosize=1;strokeColor=none;fillColor=none;strokeWidth=2;fontFamily=Comic Sans MS;fontStyle=1;container=0;" vertex="1" parent="1">
          <mxGeometry x="765" y="1286" width="30" height="30" as="geometry" />
        </mxCell>
        <mxCell id="ssaRUBrVBBdNvTdfM8SY-208" value="1.存储乘数 MQ 和被乘数 X 数据，置空 ACC" style="text;html=1;align=center;verticalAlign=middle;resizable=0;points=[];autosize=1;strokeColor=#6F0000;fillColor=none;strokeWidth=2;fontFamily=Comic Sans MS;fontStyle=1;fontColor=#ffffff;" vertex="1" parent="1">
          <mxGeometry x="536" y="1050" width="270" height="30" as="geometry" />
        </mxCell>
        <mxCell id="ssaRUBrVBBdNvTdfM8SY-209" value="&lt;div style=&quot;text-align: left;&quot;&gt;&lt;span style=&quot;background-color: initial;&quot;&gt;2.判断 MQ 的最后一位&lt;/span&gt;&lt;/div&gt;&lt;div style=&quot;text-align: left;&quot;&gt;&lt;span style=&quot;background-color: initial;&quot;&gt;若为 1，就直接ACC + X&lt;/span&gt;&lt;/div&gt;&lt;div style=&quot;text-align: left;&quot;&gt;&lt;span style=&quot;background-color: initial;&quot;&gt;若为 0，就什么也不做&lt;/span&gt;&lt;/div&gt;" style="text;html=1;align=center;verticalAlign=middle;resizable=0;points=[];autosize=1;strokeColor=#6F0000;fillColor=none;strokeWidth=2;fontFamily=Comic Sans MS;fontStyle=1;fontColor=#ffffff;" vertex="1" parent="1">
          <mxGeometry x="600" y="1356" width="160" height="60" as="geometry" />
        </mxCell>
        <mxCell id="ssaRUBrVBBdNvTdfM8SY-212" style="rounded=0;orthogonalLoop=1;jettySize=auto;html=1;entryX=0.25;entryY=1;entryDx=0;entryDy=0;strokeWidth=2;" edge="1" target="ssaRUBrVBBdNvTdfM8SY-220" parent="1">
          <mxGeometry relative="1" as="geometry">
            <mxPoint x="500" y="1640" as="sourcePoint" />
          </mxGeometry>
        </mxCell>
        <mxCell id="ssaRUBrVBBdNvTdfM8SY-213" style="edgeStyle=orthogonalEdgeStyle;rounded=0;orthogonalLoop=1;jettySize=auto;html=1;exitX=0.5;exitY=0;exitDx=0;exitDy=0;entryX=0.5;entryY=0;entryDx=0;entryDy=0;strokeWidth=2;" edge="1" target="ssaRUBrVBBdNvTdfM8SY-220" parent="1">
          <mxGeometry relative="1" as="geometry">
            <mxPoint x="480" y="1760" as="sourcePoint" />
          </mxGeometry>
        </mxCell>
        <mxCell id="ssaRUBrVBBdNvTdfM8SY-214" style="rounded=0;orthogonalLoop=1;jettySize=auto;html=1;exitX=0.75;exitY=1;exitDx=0;exitDy=0;strokeWidth=2;" edge="1" source="ssaRUBrVBBdNvTdfM8SY-220" parent="1">
          <mxGeometry relative="1" as="geometry">
            <mxPoint x="460" y="1640" as="targetPoint" />
          </mxGeometry>
        </mxCell>
        <mxCell id="ssaRUBrVBBdNvTdfM8SY-216" value="X:被乘数" style="text;html=1;align=center;verticalAlign=middle;resizable=0;points=[];autosize=1;strokeColor=none;fillColor=none;strokeWidth=2;fontFamily=Comic Sans MS;fontStyle=1" vertex="1" parent="1">
          <mxGeometry x="360" y="1800" width="70" height="30" as="geometry" />
        </mxCell>
        <mxCell id="ssaRUBrVBBdNvTdfM8SY-217" value="ACC:乘积高位" style="text;html=1;align=center;verticalAlign=middle;resizable=0;points=[];autosize=1;strokeColor=none;fillColor=none;strokeWidth=2;fontFamily=Comic Sans MS;fontStyle=1" vertex="1" parent="1">
          <mxGeometry x="355" y="1570" width="100" height="30" as="geometry" />
        </mxCell>
        <mxCell id="ssaRUBrVBBdNvTdfM8SY-218" value="MQ:乘积低位、乘数" style="text;html=1;align=center;verticalAlign=middle;resizable=0;points=[];autosize=1;strokeColor=none;fillColor=none;strokeWidth=2;fontFamily=Comic Sans MS;fontStyle=1" vertex="1" parent="1">
          <mxGeometry x="600" y="1570" width="130" height="30" as="geometry" />
        </mxCell>
        <mxCell id="ssaRUBrVBBdNvTdfM8SY-219" value="" style="group" vertex="1" connectable="0" parent="1">
          <mxGeometry x="440" y="1660" width="80" height="40" as="geometry" />
        </mxCell>
        <mxCell id="ssaRUBrVBBdNvTdfM8SY-220" value="" style="shape=trapezoid;perimeter=trapezoidPerimeter;whiteSpace=wrap;html=1;fixedSize=1;rotation=-180;strokeWidth=2;fontFamily=Comic Sans MS;fontStyle=1" vertex="1" parent="ssaRUBrVBBdNvTdfM8SY-219">
          <mxGeometry width="80" height="40" as="geometry" />
        </mxCell>
        <mxCell id="ssaRUBrVBBdNvTdfM8SY-221" value="ALU" style="text;html=1;align=center;verticalAlign=middle;resizable=0;points=[];autosize=1;strokeColor=none;fillColor=none;strokeWidth=2;fontFamily=Comic Sans MS;fontStyle=1" vertex="1" parent="ssaRUBrVBBdNvTdfM8SY-219">
          <mxGeometry x="15" y="5" width="50" height="30" as="geometry" />
        </mxCell>
        <mxCell id="ssaRUBrVBBdNvTdfM8SY-245" value="" style="group;fillColor=#a20025;fontColor=#ffffff;strokeColor=#6F0000;gradientColor=none;container=0;" vertex="1" connectable="0" parent="1">
          <mxGeometry x="360" y="1760" width="40" height="40" as="geometry" />
        </mxCell>
        <mxCell id="ssaRUBrVBBdNvTdfM8SY-246" value="" style="group" vertex="1" connectable="0" parent="1">
          <mxGeometry x="400" y="1760" width="40" height="40" as="geometry" />
        </mxCell>
        <mxCell id="ssaRUBrVBBdNvTdfM8SY-247" value="" style="whiteSpace=wrap;html=1;strokeWidth=2;fontFamily=Comic Sans MS;fontStyle=1" vertex="1" parent="ssaRUBrVBBdNvTdfM8SY-246">
          <mxGeometry width="40" height="40" as="geometry" />
        </mxCell>
        <mxCell id="ssaRUBrVBBdNvTdfM8SY-248" value="1" style="text;html=1;align=center;verticalAlign=middle;resizable=0;points=[];autosize=1;strokeColor=none;fillColor=none;strokeWidth=2;fontFamily=Comic Sans MS;fontStyle=1" vertex="1" parent="ssaRUBrVBBdNvTdfM8SY-246">
          <mxGeometry x="5" y="5" width="30" height="30" as="geometry" />
        </mxCell>
        <mxCell id="ssaRUBrVBBdNvTdfM8SY-249" value="" style="group" vertex="1" connectable="0" parent="1">
          <mxGeometry x="440" y="1760" width="40" height="40" as="geometry" />
        </mxCell>
        <mxCell id="ssaRUBrVBBdNvTdfM8SY-250" value="" style="whiteSpace=wrap;html=1;strokeWidth=2;fontFamily=Comic Sans MS;fontStyle=1" vertex="1" parent="ssaRUBrVBBdNvTdfM8SY-249">
          <mxGeometry width="40" height="40" as="geometry" />
        </mxCell>
        <mxCell id="ssaRUBrVBBdNvTdfM8SY-251" value="1" style="text;html=1;align=center;verticalAlign=middle;resizable=0;points=[];autosize=1;strokeColor=none;fillColor=none;strokeWidth=2;fontFamily=Comic Sans MS;fontStyle=1" vertex="1" parent="ssaRUBrVBBdNvTdfM8SY-249">
          <mxGeometry x="5" y="5" width="30" height="30" as="geometry" />
        </mxCell>
        <mxCell id="ssaRUBrVBBdNvTdfM8SY-252" value="" style="group" vertex="1" connectable="0" parent="1">
          <mxGeometry x="480" y="1760" width="40" height="40" as="geometry" />
        </mxCell>
        <mxCell id="ssaRUBrVBBdNvTdfM8SY-253" value="" style="whiteSpace=wrap;html=1;strokeWidth=2;fontFamily=Comic Sans MS;fontStyle=1" vertex="1" parent="ssaRUBrVBBdNvTdfM8SY-252">
          <mxGeometry width="40" height="40" as="geometry" />
        </mxCell>
        <mxCell id="ssaRUBrVBBdNvTdfM8SY-254" value="0" style="text;html=1;align=center;verticalAlign=middle;resizable=0;points=[];autosize=1;strokeColor=none;fillColor=none;strokeWidth=2;fontFamily=Comic Sans MS;fontStyle=1" vertex="1" parent="ssaRUBrVBBdNvTdfM8SY-252">
          <mxGeometry x="5" y="5" width="30" height="30" as="geometry" />
        </mxCell>
        <mxCell id="ssaRUBrVBBdNvTdfM8SY-255" value="" style="group" vertex="1" connectable="0" parent="1">
          <mxGeometry x="520" y="1760" width="40" height="40" as="geometry" />
        </mxCell>
        <mxCell id="ssaRUBrVBBdNvTdfM8SY-256" value="" style="whiteSpace=wrap;html=1;strokeWidth=2;fontFamily=Comic Sans MS;fontStyle=1" vertex="1" parent="ssaRUBrVBBdNvTdfM8SY-255">
          <mxGeometry width="40" height="40" as="geometry" />
        </mxCell>
        <mxCell id="ssaRUBrVBBdNvTdfM8SY-257" value="1" style="text;html=1;align=center;verticalAlign=middle;resizable=0;points=[];autosize=1;strokeColor=none;fillColor=none;strokeWidth=2;fontFamily=Comic Sans MS;fontStyle=1" vertex="1" parent="ssaRUBrVBBdNvTdfM8SY-255">
          <mxGeometry x="5" y="5" width="30" height="30" as="geometry" />
        </mxCell>
        <mxCell id="ssaRUBrVBBdNvTdfM8SY-262" value="" style="whiteSpace=wrap;html=1;strokeWidth=2;fontFamily=Comic Sans MS;fontStyle=1;fillColor=#a20025;fontColor=#ffffff;strokeColor=#6F0000;" vertex="1" parent="1">
          <mxGeometry x="360" y="1760" width="40" height="40" as="geometry" />
        </mxCell>
        <mxCell id="ssaRUBrVBBdNvTdfM8SY-263" value="0" style="text;html=1;align=center;verticalAlign=middle;resizable=0;points=[];autosize=1;strokeColor=none;fillColor=none;strokeWidth=2;fontFamily=Comic Sans MS;fontStyle=1" vertex="1" parent="1">
          <mxGeometry x="365" y="1765" width="30" height="30" as="geometry" />
        </mxCell>
        <mxCell id="ssaRUBrVBBdNvTdfM8SY-266" value="&lt;div style=&quot;text-align: left;&quot;&gt;&lt;span style=&quot;background-color: initial;&quot;&gt;3.最后逻辑右移 ACC 和 MQ 组成的二进制序列&lt;/span&gt;&lt;br&gt;&lt;/div&gt;" style="text;html=1;align=center;verticalAlign=middle;resizable=0;points=[];autosize=1;strokeColor=#6F0000;fillColor=none;strokeWidth=2;fontFamily=Comic Sans MS;fontStyle=1;fontColor=#ffffff;" vertex="1" parent="1">
          <mxGeometry x="536" y="1690" width="280" height="30" as="geometry" />
        </mxCell>
        <mxCell id="ssaRUBrVBBdNvTdfM8SY-215" style="edgeStyle=orthogonalEdgeStyle;rounded=0;orthogonalLoop=1;jettySize=auto;html=1;exitX=0;exitY=0.75;exitDx=0;exitDy=0;entryX=1;entryY=0.75;entryDx=0;entryDy=0;strokeWidth=2;" edge="1" source="ssaRUBrVBBdNvTdfM8SY-258" parent="1">
          <mxGeometry relative="1" as="geometry">
            <mxPoint x="560" y="1630" as="targetPoint" />
          </mxGeometry>
        </mxCell>
        <mxCell id="ssaRUBrVBBdNvTdfM8SY-222" value="" style="group;fillColor=#a20025;fontColor=#ffffff;strokeColor=#6F0000;gradientColor=none;container=0;" vertex="1" connectable="0" parent="1">
          <mxGeometry x="360" y="1600" width="40" height="40" as="geometry" />
        </mxCell>
        <mxCell id="ssaRUBrVBBdNvTdfM8SY-223" value="" style="group" vertex="1" connectable="0" parent="1">
          <mxGeometry x="520" y="1600" width="40" height="40" as="geometry" />
        </mxCell>
        <mxCell id="ssaRUBrVBBdNvTdfM8SY-224" value="" style="whiteSpace=wrap;html=1;strokeWidth=2;fontFamily=Comic Sans MS;fontStyle=1" vertex="1" parent="ssaRUBrVBBdNvTdfM8SY-223">
          <mxGeometry width="40" height="40" as="geometry" />
        </mxCell>
        <mxCell id="ssaRUBrVBBdNvTdfM8SY-228" value="&lt;font color=&quot;#ff0000&quot;&gt;0&lt;/font&gt;" style="text;html=1;align=center;verticalAlign=middle;resizable=0;points=[];autosize=1;strokeColor=none;fillColor=none;strokeWidth=2;fontFamily=Comic Sans MS;fontStyle=1" vertex="1" parent="ssaRUBrVBBdNvTdfM8SY-223">
          <mxGeometry x="5" y="5" width="30" height="30" as="geometry" />
        </mxCell>
        <mxCell id="ssaRUBrVBBdNvTdfM8SY-226" value="" style="group" vertex="1" connectable="0" parent="1">
          <mxGeometry x="480" y="1600" width="40" height="40" as="geometry" />
        </mxCell>
        <mxCell id="ssaRUBrVBBdNvTdfM8SY-227" value="" style="whiteSpace=wrap;html=1;strokeWidth=2;fontFamily=Comic Sans MS;fontStyle=1" vertex="1" parent="ssaRUBrVBBdNvTdfM8SY-226">
          <mxGeometry width="40" height="40" as="geometry" />
        </mxCell>
        <mxCell id="ssaRUBrVBBdNvTdfM8SY-231" value="&lt;font color=&quot;#ff0000&quot;&gt;1&lt;/font&gt;" style="text;html=1;align=center;verticalAlign=middle;resizable=0;points=[];autosize=1;strokeColor=none;fillColor=none;strokeWidth=2;fontFamily=Comic Sans MS;fontStyle=1" vertex="1" parent="ssaRUBrVBBdNvTdfM8SY-226">
          <mxGeometry x="5" y="5" width="30" height="30" as="geometry" />
        </mxCell>
        <mxCell id="ssaRUBrVBBdNvTdfM8SY-229" value="" style="group" vertex="1" connectable="0" parent="1">
          <mxGeometry x="440" y="1600" width="40" height="40" as="geometry" />
        </mxCell>
        <mxCell id="ssaRUBrVBBdNvTdfM8SY-230" value="" style="whiteSpace=wrap;html=1;strokeWidth=2;fontFamily=Comic Sans MS;fontStyle=1" vertex="1" parent="ssaRUBrVBBdNvTdfM8SY-229">
          <mxGeometry width="40" height="40" as="geometry" />
        </mxCell>
        <mxCell id="ssaRUBrVBBdNvTdfM8SY-234" value="&lt;font color=&quot;#ff0000&quot;&gt;1&lt;/font&gt;" style="text;html=1;align=center;verticalAlign=middle;resizable=0;points=[];autosize=1;strokeColor=none;fillColor=none;strokeWidth=2;fontFamily=Comic Sans MS;fontStyle=1" vertex="1" parent="ssaRUBrVBBdNvTdfM8SY-229">
          <mxGeometry x="5" y="5" width="30" height="30" as="geometry" />
        </mxCell>
        <mxCell id="ssaRUBrVBBdNvTdfM8SY-232" value="" style="group" vertex="1" connectable="0" parent="1">
          <mxGeometry x="400" y="1600" width="40" height="40" as="geometry" />
        </mxCell>
        <mxCell id="ssaRUBrVBBdNvTdfM8SY-233" value="" style="whiteSpace=wrap;html=1;strokeWidth=2;fontFamily=Comic Sans MS;fontStyle=1" vertex="1" parent="ssaRUBrVBBdNvTdfM8SY-232">
          <mxGeometry width="40" height="40" as="geometry" />
        </mxCell>
        <mxCell id="ssaRUBrVBBdNvTdfM8SY-269" value="&lt;font color=&quot;#ff0000&quot;&gt;0&lt;/font&gt;" style="text;html=1;align=center;verticalAlign=middle;resizable=0;points=[];autosize=1;strokeColor=none;fillColor=none;strokeWidth=2;fontFamily=Comic Sans MS;fontStyle=1" vertex="1" parent="ssaRUBrVBBdNvTdfM8SY-232">
          <mxGeometry x="5" y="5" width="30" height="30" as="geometry" />
        </mxCell>
        <mxCell id="ssaRUBrVBBdNvTdfM8SY-235" value="" style="group;fillColor=#a20025;fontColor=#ffffff;strokeColor=#6F0000;gradientColor=none;container=0;" vertex="1" connectable="0" parent="1">
          <mxGeometry x="600" y="1600" width="40" height="40" as="geometry" />
        </mxCell>
        <mxCell id="ssaRUBrVBBdNvTdfM8SY-236" value="" style="group" vertex="1" connectable="0" parent="1">
          <mxGeometry x="640" y="1600" width="40" height="40" as="geometry" />
        </mxCell>
        <mxCell id="ssaRUBrVBBdNvTdfM8SY-237" value="" style="whiteSpace=wrap;html=1;strokeWidth=2;fontFamily=Comic Sans MS;fontStyle=1" vertex="1" parent="ssaRUBrVBBdNvTdfM8SY-236">
          <mxGeometry width="40" height="40" as="geometry" />
        </mxCell>
        <mxCell id="ssaRUBrVBBdNvTdfM8SY-259" value="0" style="text;html=1;align=center;verticalAlign=middle;resizable=0;points=[];autosize=1;strokeColor=none;fillColor=none;strokeWidth=2;fontFamily=Comic Sans MS;fontStyle=1" vertex="1" parent="ssaRUBrVBBdNvTdfM8SY-236">
          <mxGeometry x="5" y="5" width="30" height="30" as="geometry" />
        </mxCell>
        <mxCell id="ssaRUBrVBBdNvTdfM8SY-239" value="" style="group" vertex="1" connectable="0" parent="1">
          <mxGeometry x="680" y="1600" width="40" height="40" as="geometry" />
        </mxCell>
        <mxCell id="ssaRUBrVBBdNvTdfM8SY-240" value="" style="whiteSpace=wrap;html=1;strokeWidth=2;fontFamily=Comic Sans MS;fontStyle=1" vertex="1" parent="ssaRUBrVBBdNvTdfM8SY-239">
          <mxGeometry width="40" height="40" as="geometry" />
        </mxCell>
        <mxCell id="ssaRUBrVBBdNvTdfM8SY-238" value="1" style="text;html=1;align=center;verticalAlign=middle;resizable=0;points=[];autosize=1;strokeColor=none;fillColor=none;strokeWidth=2;fontFamily=Comic Sans MS;fontStyle=1" vertex="1" parent="ssaRUBrVBBdNvTdfM8SY-239">
          <mxGeometry x="5" y="5" width="30" height="30" as="geometry" />
        </mxCell>
        <mxCell id="ssaRUBrVBBdNvTdfM8SY-242" value="" style="group" vertex="1" connectable="0" parent="1">
          <mxGeometry x="720" y="1600" width="40" height="40" as="geometry" />
        </mxCell>
        <mxCell id="ssaRUBrVBBdNvTdfM8SY-243" value="" style="whiteSpace=wrap;html=1;strokeWidth=2;fontFamily=Comic Sans MS;fontStyle=1" vertex="1" parent="ssaRUBrVBBdNvTdfM8SY-242">
          <mxGeometry width="40" height="40" as="geometry" />
        </mxCell>
        <mxCell id="ssaRUBrVBBdNvTdfM8SY-241" value="0" style="text;html=1;align=center;verticalAlign=middle;resizable=0;points=[];autosize=1;strokeColor=none;fillColor=none;strokeWidth=2;fontFamily=Comic Sans MS;fontStyle=1" vertex="1" parent="ssaRUBrVBBdNvTdfM8SY-242">
          <mxGeometry x="5" y="5" width="30" height="30" as="geometry" />
        </mxCell>
        <mxCell id="ssaRUBrVBBdNvTdfM8SY-258" value="" style="whiteSpace=wrap;html=1;strokeWidth=2;fontFamily=Comic Sans MS;fontStyle=1;fillColor=#a20025;fontColor=#ffffff;strokeColor=#6F0000;" vertex="1" parent="1">
          <mxGeometry x="600" y="1600" width="40" height="40" as="geometry" />
        </mxCell>
        <mxCell id="ssaRUBrVBBdNvTdfM8SY-260" value="" style="whiteSpace=wrap;html=1;strokeWidth=2;fontFamily=Comic Sans MS;fontStyle=1;fillColor=#a20025;fontColor=#ffffff;strokeColor=#6F0000;" vertex="1" parent="1">
          <mxGeometry x="360" y="1600" width="40" height="40" as="geometry" />
        </mxCell>
        <mxCell id="ssaRUBrVBBdNvTdfM8SY-261" value="0" style="text;html=1;align=center;verticalAlign=middle;resizable=0;points=[];autosize=1;strokeColor=none;fillColor=none;strokeWidth=2;fontFamily=Comic Sans MS;fontStyle=1" vertex="1" parent="1">
          <mxGeometry x="365" y="1605" width="30" height="30" as="geometry" />
        </mxCell>
        <mxCell id="ssaRUBrVBBdNvTdfM8SY-264" value="" style="whiteSpace=wrap;html=1;strokeWidth=2;fontFamily=Comic Sans MS;fontStyle=1;container=0;fillColor=#d80073;fontColor=#ffffff;strokeColor=#A50040;" vertex="1" parent="1">
          <mxGeometry x="760" y="1600" width="40" height="40" as="geometry" />
        </mxCell>
        <mxCell id="ssaRUBrVBBdNvTdfM8SY-244" value="1" style="text;html=1;align=center;verticalAlign=middle;resizable=0;points=[];autosize=1;strokeColor=none;fillColor=none;strokeWidth=2;fontFamily=Comic Sans MS;fontStyle=1" vertex="1" parent="1">
          <mxGeometry x="765" y="1605" width="30" height="30" as="geometry" />
        </mxCell>
        <mxCell id="ssaRUBrVBBdNvTdfM8SY-268" value="1" style="text;html=1;align=center;verticalAlign=middle;resizable=0;points=[];autosize=1;strokeColor=none;fillColor=none;strokeWidth=2;fontFamily=Comic Sans MS;fontStyle=1" vertex="1" parent="1">
          <mxGeometry x="805" y="1605" width="30" height="30" as="geometry" />
        </mxCell>
        <mxCell id="ssaRUBrVBBdNvTdfM8SY-225" value="&lt;font color=&quot;#ff0000&quot;&gt;1&lt;/font&gt;" style="text;html=1;align=center;verticalAlign=middle;resizable=0;points=[];autosize=1;strokeColor=none;fillColor=none;strokeWidth=2;fontFamily=Comic Sans MS;fontStyle=1" vertex="1" parent="1">
          <mxGeometry x="605" y="1605" width="30" height="30" as="geometry" />
        </mxCell>
        <mxCell id="ssaRUBrVBBdNvTdfM8SY-270" style="rounded=0;orthogonalLoop=1;jettySize=auto;html=1;entryX=0.25;entryY=1;entryDx=0;entryDy=0;strokeWidth=2;" edge="1" parent="1" target="ssaRUBrVBBdNvTdfM8SY-277">
          <mxGeometry relative="1" as="geometry">
            <mxPoint x="500" y="1960" as="sourcePoint" />
          </mxGeometry>
        </mxCell>
        <mxCell id="ssaRUBrVBBdNvTdfM8SY-271" style="edgeStyle=orthogonalEdgeStyle;rounded=0;orthogonalLoop=1;jettySize=auto;html=1;exitX=0.5;exitY=0;exitDx=0;exitDy=0;entryX=0.5;entryY=0;entryDx=0;entryDy=0;strokeWidth=2;" edge="1" parent="1" target="ssaRUBrVBBdNvTdfM8SY-277">
          <mxGeometry relative="1" as="geometry">
            <mxPoint x="480" y="2080" as="sourcePoint" />
          </mxGeometry>
        </mxCell>
        <mxCell id="ssaRUBrVBBdNvTdfM8SY-272" style="rounded=0;orthogonalLoop=1;jettySize=auto;html=1;exitX=0.75;exitY=1;exitDx=0;exitDy=0;strokeWidth=2;" edge="1" parent="1" source="ssaRUBrVBBdNvTdfM8SY-277">
          <mxGeometry relative="1" as="geometry">
            <mxPoint x="460" y="1960" as="targetPoint" />
          </mxGeometry>
        </mxCell>
        <mxCell id="ssaRUBrVBBdNvTdfM8SY-273" value="X:被乘数" style="text;html=1;align=center;verticalAlign=middle;resizable=0;points=[];autosize=1;strokeColor=none;fillColor=none;strokeWidth=2;fontFamily=Comic Sans MS;fontStyle=1" vertex="1" parent="1">
          <mxGeometry x="360" y="2120" width="70" height="30" as="geometry" />
        </mxCell>
        <mxCell id="ssaRUBrVBBdNvTdfM8SY-274" value="ACC:乘积高位" style="text;html=1;align=center;verticalAlign=middle;resizable=0;points=[];autosize=1;strokeColor=none;fillColor=none;strokeWidth=2;fontFamily=Comic Sans MS;fontStyle=1" vertex="1" parent="1">
          <mxGeometry x="355" y="1890" width="100" height="30" as="geometry" />
        </mxCell>
        <mxCell id="ssaRUBrVBBdNvTdfM8SY-275" value="MQ:乘积低位、乘数" style="text;html=1;align=center;verticalAlign=middle;resizable=0;points=[];autosize=1;strokeColor=none;fillColor=none;strokeWidth=2;fontFamily=Comic Sans MS;fontStyle=1" vertex="1" parent="1">
          <mxGeometry x="600" y="1890" width="130" height="30" as="geometry" />
        </mxCell>
        <mxCell id="ssaRUBrVBBdNvTdfM8SY-276" value="" style="group" vertex="1" connectable="0" parent="1">
          <mxGeometry x="440" y="1980" width="80" height="40" as="geometry" />
        </mxCell>
        <mxCell id="ssaRUBrVBBdNvTdfM8SY-277" value="" style="shape=trapezoid;perimeter=trapezoidPerimeter;whiteSpace=wrap;html=1;fixedSize=1;rotation=-180;strokeWidth=2;fontFamily=Comic Sans MS;fontStyle=1" vertex="1" parent="ssaRUBrVBBdNvTdfM8SY-276">
          <mxGeometry width="80" height="40" as="geometry" />
        </mxCell>
        <mxCell id="ssaRUBrVBBdNvTdfM8SY-278" value="ALU" style="text;html=1;align=center;verticalAlign=middle;resizable=0;points=[];autosize=1;strokeColor=none;fillColor=none;strokeWidth=2;fontFamily=Comic Sans MS;fontStyle=1" vertex="1" parent="ssaRUBrVBBdNvTdfM8SY-276">
          <mxGeometry x="15" y="5" width="50" height="30" as="geometry" />
        </mxCell>
        <mxCell id="ssaRUBrVBBdNvTdfM8SY-279" value="" style="group;fillColor=#a20025;fontColor=#ffffff;strokeColor=#6F0000;gradientColor=none;container=0;" vertex="1" connectable="0" parent="1">
          <mxGeometry x="360" y="2080" width="40" height="40" as="geometry" />
        </mxCell>
        <mxCell id="ssaRUBrVBBdNvTdfM8SY-280" value="" style="group" vertex="1" connectable="0" parent="1">
          <mxGeometry x="400" y="2080" width="40" height="40" as="geometry" />
        </mxCell>
        <mxCell id="ssaRUBrVBBdNvTdfM8SY-281" value="" style="whiteSpace=wrap;html=1;strokeWidth=2;fontFamily=Comic Sans MS;fontStyle=1" vertex="1" parent="ssaRUBrVBBdNvTdfM8SY-280">
          <mxGeometry width="40" height="40" as="geometry" />
        </mxCell>
        <mxCell id="ssaRUBrVBBdNvTdfM8SY-282" value="1" style="text;html=1;align=center;verticalAlign=middle;resizable=0;points=[];autosize=1;strokeColor=none;fillColor=none;strokeWidth=2;fontFamily=Comic Sans MS;fontStyle=1" vertex="1" parent="ssaRUBrVBBdNvTdfM8SY-280">
          <mxGeometry x="5" y="5" width="30" height="30" as="geometry" />
        </mxCell>
        <mxCell id="ssaRUBrVBBdNvTdfM8SY-283" value="" style="group" vertex="1" connectable="0" parent="1">
          <mxGeometry x="440" y="2080" width="40" height="40" as="geometry" />
        </mxCell>
        <mxCell id="ssaRUBrVBBdNvTdfM8SY-284" value="" style="whiteSpace=wrap;html=1;strokeWidth=2;fontFamily=Comic Sans MS;fontStyle=1" vertex="1" parent="ssaRUBrVBBdNvTdfM8SY-283">
          <mxGeometry width="40" height="40" as="geometry" />
        </mxCell>
        <mxCell id="ssaRUBrVBBdNvTdfM8SY-285" value="1" style="text;html=1;align=center;verticalAlign=middle;resizable=0;points=[];autosize=1;strokeColor=none;fillColor=none;strokeWidth=2;fontFamily=Comic Sans MS;fontStyle=1" vertex="1" parent="ssaRUBrVBBdNvTdfM8SY-283">
          <mxGeometry x="5" y="5" width="30" height="30" as="geometry" />
        </mxCell>
        <mxCell id="ssaRUBrVBBdNvTdfM8SY-286" value="" style="group" vertex="1" connectable="0" parent="1">
          <mxGeometry x="480" y="2080" width="40" height="40" as="geometry" />
        </mxCell>
        <mxCell id="ssaRUBrVBBdNvTdfM8SY-287" value="" style="whiteSpace=wrap;html=1;strokeWidth=2;fontFamily=Comic Sans MS;fontStyle=1" vertex="1" parent="ssaRUBrVBBdNvTdfM8SY-286">
          <mxGeometry width="40" height="40" as="geometry" />
        </mxCell>
        <mxCell id="ssaRUBrVBBdNvTdfM8SY-288" value="0" style="text;html=1;align=center;verticalAlign=middle;resizable=0;points=[];autosize=1;strokeColor=none;fillColor=none;strokeWidth=2;fontFamily=Comic Sans MS;fontStyle=1" vertex="1" parent="ssaRUBrVBBdNvTdfM8SY-286">
          <mxGeometry x="5" y="5" width="30" height="30" as="geometry" />
        </mxCell>
        <mxCell id="ssaRUBrVBBdNvTdfM8SY-289" value="" style="group" vertex="1" connectable="0" parent="1">
          <mxGeometry x="520" y="2080" width="40" height="40" as="geometry" />
        </mxCell>
        <mxCell id="ssaRUBrVBBdNvTdfM8SY-290" value="" style="whiteSpace=wrap;html=1;strokeWidth=2;fontFamily=Comic Sans MS;fontStyle=1" vertex="1" parent="ssaRUBrVBBdNvTdfM8SY-289">
          <mxGeometry width="40" height="40" as="geometry" />
        </mxCell>
        <mxCell id="ssaRUBrVBBdNvTdfM8SY-291" value="1" style="text;html=1;align=center;verticalAlign=middle;resizable=0;points=[];autosize=1;strokeColor=none;fillColor=none;strokeWidth=2;fontFamily=Comic Sans MS;fontStyle=1" vertex="1" parent="ssaRUBrVBBdNvTdfM8SY-289">
          <mxGeometry x="5" y="5" width="30" height="30" as="geometry" />
        </mxCell>
        <mxCell id="ssaRUBrVBBdNvTdfM8SY-292" value="" style="whiteSpace=wrap;html=1;strokeWidth=2;fontFamily=Comic Sans MS;fontStyle=1;fillColor=#a20025;fontColor=#ffffff;strokeColor=#6F0000;" vertex="1" parent="1">
          <mxGeometry x="360" y="2080" width="40" height="40" as="geometry" />
        </mxCell>
        <mxCell id="ssaRUBrVBBdNvTdfM8SY-293" value="0" style="text;html=1;align=center;verticalAlign=middle;resizable=0;points=[];autosize=1;strokeColor=none;fillColor=none;strokeWidth=2;fontFamily=Comic Sans MS;fontStyle=1" vertex="1" parent="1">
          <mxGeometry x="365" y="2085" width="30" height="30" as="geometry" />
        </mxCell>
        <mxCell id="ssaRUBrVBBdNvTdfM8SY-294" value="&lt;div style=&quot;text-align: left;&quot;&gt;&lt;span style=&quot;background-color: initial;&quot;&gt;4.最后逻辑右移 ACC 和 MQ 组成的二进制序列&lt;/span&gt;&lt;br&gt;&lt;/div&gt;&lt;div style=&quot;text-align: left;&quot;&gt;&lt;span style=&quot;background-color: initial;&quot;&gt;0.1000 1111 就是相乘结果&lt;/span&gt;&lt;/div&gt;" style="text;html=1;align=center;verticalAlign=middle;resizable=0;points=[];autosize=1;strokeColor=#6F0000;fillColor=none;strokeWidth=2;fontFamily=Comic Sans MS;fontStyle=1;fontColor=#ffffff;" vertex="1" parent="1">
          <mxGeometry x="536" y="2005" width="280" height="40" as="geometry" />
        </mxCell>
        <mxCell id="ssaRUBrVBBdNvTdfM8SY-296" style="edgeStyle=orthogonalEdgeStyle;rounded=0;orthogonalLoop=1;jettySize=auto;html=1;exitX=0;exitY=0.75;exitDx=0;exitDy=0;entryX=1;entryY=0.75;entryDx=0;entryDy=0;strokeWidth=2;" edge="1" parent="1" source="ssaRUBrVBBdNvTdfM8SY-320">
          <mxGeometry relative="1" as="geometry">
            <mxPoint x="560" y="1950" as="targetPoint" />
          </mxGeometry>
        </mxCell>
        <mxCell id="ssaRUBrVBBdNvTdfM8SY-297" value="" style="group;fillColor=#a20025;fontColor=#ffffff;strokeColor=#6F0000;gradientColor=none;container=0;" vertex="1" connectable="0" parent="1">
          <mxGeometry x="360" y="1920" width="40" height="40" as="geometry" />
        </mxCell>
        <mxCell id="ssaRUBrVBBdNvTdfM8SY-298" value="" style="group" vertex="1" connectable="0" parent="1">
          <mxGeometry x="520" y="1920" width="40" height="40" as="geometry" />
        </mxCell>
        <mxCell id="ssaRUBrVBBdNvTdfM8SY-299" value="" style="whiteSpace=wrap;html=1;strokeWidth=2;fontFamily=Comic Sans MS;fontStyle=1" vertex="1" parent="ssaRUBrVBBdNvTdfM8SY-298">
          <mxGeometry width="40" height="40" as="geometry" />
        </mxCell>
        <mxCell id="ssaRUBrVBBdNvTdfM8SY-300" value="&lt;font color=&quot;#ff0000&quot;&gt;0&lt;/font&gt;" style="text;html=1;align=center;verticalAlign=middle;resizable=0;points=[];autosize=1;strokeColor=none;fillColor=none;strokeWidth=2;fontFamily=Comic Sans MS;fontStyle=1" vertex="1" parent="ssaRUBrVBBdNvTdfM8SY-298">
          <mxGeometry x="5" y="5" width="30" height="30" as="geometry" />
        </mxCell>
        <mxCell id="ssaRUBrVBBdNvTdfM8SY-301" value="" style="group" vertex="1" connectable="0" parent="1">
          <mxGeometry x="480" y="1920" width="40" height="40" as="geometry" />
        </mxCell>
        <mxCell id="ssaRUBrVBBdNvTdfM8SY-302" value="" style="whiteSpace=wrap;html=1;strokeWidth=2;fontFamily=Comic Sans MS;fontStyle=1" vertex="1" parent="ssaRUBrVBBdNvTdfM8SY-301">
          <mxGeometry width="40" height="40" as="geometry" />
        </mxCell>
        <mxCell id="ssaRUBrVBBdNvTdfM8SY-303" value="&lt;font color=&quot;#ff0000&quot;&gt;0&lt;/font&gt;" style="text;html=1;align=center;verticalAlign=middle;resizable=0;points=[];autosize=1;strokeColor=none;fillColor=none;strokeWidth=2;fontFamily=Comic Sans MS;fontStyle=1" vertex="1" parent="ssaRUBrVBBdNvTdfM8SY-301">
          <mxGeometry x="5" y="5" width="30" height="30" as="geometry" />
        </mxCell>
        <mxCell id="ssaRUBrVBBdNvTdfM8SY-304" value="" style="group" vertex="1" connectable="0" parent="1">
          <mxGeometry x="440" y="1920" width="40" height="40" as="geometry" />
        </mxCell>
        <mxCell id="ssaRUBrVBBdNvTdfM8SY-305" value="" style="whiteSpace=wrap;html=1;strokeWidth=2;fontFamily=Comic Sans MS;fontStyle=1" vertex="1" parent="ssaRUBrVBBdNvTdfM8SY-304">
          <mxGeometry width="40" height="40" as="geometry" />
        </mxCell>
        <mxCell id="ssaRUBrVBBdNvTdfM8SY-306" value="&lt;font color=&quot;#ff0000&quot;&gt;0&lt;/font&gt;" style="text;html=1;align=center;verticalAlign=middle;resizable=0;points=[];autosize=1;strokeColor=none;fillColor=none;strokeWidth=2;fontFamily=Comic Sans MS;fontStyle=1" vertex="1" parent="ssaRUBrVBBdNvTdfM8SY-304">
          <mxGeometry x="5" y="5" width="30" height="30" as="geometry" />
        </mxCell>
        <mxCell id="ssaRUBrVBBdNvTdfM8SY-310" value="" style="group;fillColor=#a20025;fontColor=#ffffff;strokeColor=#6F0000;gradientColor=none;container=0;" vertex="1" connectable="0" parent="1">
          <mxGeometry x="600" y="1920" width="40" height="40" as="geometry" />
        </mxCell>
        <mxCell id="ssaRUBrVBBdNvTdfM8SY-311" value="" style="group" vertex="1" connectable="0" parent="1">
          <mxGeometry x="640" y="1920" width="40" height="40" as="geometry" />
        </mxCell>
        <mxCell id="ssaRUBrVBBdNvTdfM8SY-312" value="" style="whiteSpace=wrap;html=1;strokeWidth=2;fontFamily=Comic Sans MS;fontStyle=1" vertex="1" parent="ssaRUBrVBBdNvTdfM8SY-311">
          <mxGeometry width="40" height="40" as="geometry" />
        </mxCell>
        <mxCell id="ssaRUBrVBBdNvTdfM8SY-313" value="&lt;font color=&quot;#ff0000&quot;&gt;1&lt;/font&gt;" style="text;html=1;align=center;verticalAlign=middle;resizable=0;points=[];autosize=1;strokeColor=none;fillColor=none;strokeWidth=2;fontFamily=Comic Sans MS;fontStyle=1" vertex="1" parent="ssaRUBrVBBdNvTdfM8SY-311">
          <mxGeometry x="5" y="5" width="30" height="30" as="geometry" />
        </mxCell>
        <mxCell id="ssaRUBrVBBdNvTdfM8SY-314" value="" style="group" vertex="1" connectable="0" parent="1">
          <mxGeometry x="680" y="1920" width="40" height="40" as="geometry" />
        </mxCell>
        <mxCell id="ssaRUBrVBBdNvTdfM8SY-315" value="" style="whiteSpace=wrap;html=1;strokeWidth=2;fontFamily=Comic Sans MS;fontStyle=1" vertex="1" parent="ssaRUBrVBBdNvTdfM8SY-314">
          <mxGeometry width="40" height="40" as="geometry" />
        </mxCell>
        <mxCell id="ssaRUBrVBBdNvTdfM8SY-316" value="&lt;font color=&quot;#ff0000&quot;&gt;1&lt;/font&gt;" style="text;html=1;align=center;verticalAlign=middle;resizable=0;points=[];autosize=1;strokeColor=none;fillColor=none;strokeWidth=2;fontFamily=Comic Sans MS;fontStyle=1" vertex="1" parent="ssaRUBrVBBdNvTdfM8SY-314">
          <mxGeometry x="5" y="5" width="30" height="30" as="geometry" />
        </mxCell>
        <mxCell id="ssaRUBrVBBdNvTdfM8SY-317" value="" style="group" vertex="1" connectable="0" parent="1">
          <mxGeometry x="720" y="1920" width="40" height="40" as="geometry" />
        </mxCell>
        <mxCell id="ssaRUBrVBBdNvTdfM8SY-318" value="" style="whiteSpace=wrap;html=1;strokeWidth=2;fontFamily=Comic Sans MS;fontStyle=1" vertex="1" parent="ssaRUBrVBBdNvTdfM8SY-317">
          <mxGeometry width="40" height="40" as="geometry" />
        </mxCell>
        <mxCell id="ssaRUBrVBBdNvTdfM8SY-319" value="&lt;font color=&quot;#ff0000&quot;&gt;1&lt;/font&gt;" style="text;html=1;align=center;verticalAlign=middle;resizable=0;points=[];autosize=1;strokeColor=none;fillColor=none;strokeWidth=2;fontFamily=Comic Sans MS;fontStyle=1" vertex="1" parent="ssaRUBrVBBdNvTdfM8SY-317">
          <mxGeometry x="5" y="5" width="30" height="30" as="geometry" />
        </mxCell>
        <mxCell id="ssaRUBrVBBdNvTdfM8SY-320" value="" style="whiteSpace=wrap;html=1;strokeWidth=2;fontFamily=Comic Sans MS;fontStyle=1;fillColor=#a20025;fontColor=#ffffff;strokeColor=#6F0000;" vertex="1" parent="1">
          <mxGeometry x="600" y="1920" width="40" height="40" as="geometry" />
        </mxCell>
        <mxCell id="ssaRUBrVBBdNvTdfM8SY-321" value="" style="whiteSpace=wrap;html=1;strokeWidth=2;fontFamily=Comic Sans MS;fontStyle=1;fillColor=#a20025;fontColor=#ffffff;strokeColor=#6F0000;" vertex="1" parent="1">
          <mxGeometry x="360" y="1920" width="40" height="40" as="geometry" />
        </mxCell>
        <mxCell id="ssaRUBrVBBdNvTdfM8SY-322" value="0" style="text;html=1;align=center;verticalAlign=middle;resizable=0;points=[];autosize=1;strokeColor=none;fillColor=none;strokeWidth=2;fontFamily=Comic Sans MS;fontStyle=1" vertex="1" parent="1">
          <mxGeometry x="365" y="1925" width="30" height="30" as="geometry" />
        </mxCell>
        <mxCell id="ssaRUBrVBBdNvTdfM8SY-323" value="" style="whiteSpace=wrap;html=1;strokeWidth=2;fontFamily=Comic Sans MS;fontStyle=1;container=0;fillColor=#d80073;fontColor=#ffffff;strokeColor=#A50040;" vertex="1" parent="1">
          <mxGeometry x="760" y="1920" width="40" height="40" as="geometry" />
        </mxCell>
        <mxCell id="ssaRUBrVBBdNvTdfM8SY-324" value="0" style="text;html=1;align=center;verticalAlign=middle;resizable=0;points=[];autosize=1;strokeColor=none;fillColor=none;strokeWidth=2;fontFamily=Comic Sans MS;fontStyle=1" vertex="1" parent="1">
          <mxGeometry x="765" y="1925" width="30" height="30" as="geometry" />
        </mxCell>
        <mxCell id="ssaRUBrVBBdNvTdfM8SY-325" value="1" style="text;html=1;align=center;verticalAlign=middle;resizable=0;points=[];autosize=1;strokeColor=none;fillColor=none;strokeWidth=2;fontFamily=Comic Sans MS;fontStyle=1" vertex="1" parent="1">
          <mxGeometry x="805" y="1925" width="30" height="30" as="geometry" />
        </mxCell>
        <mxCell id="ssaRUBrVBBdNvTdfM8SY-326" value="&lt;font color=&quot;#ff0000&quot;&gt;1&lt;/font&gt;" style="text;html=1;align=center;verticalAlign=middle;resizable=0;points=[];autosize=1;strokeColor=none;fillColor=none;strokeWidth=2;fontFamily=Comic Sans MS;fontStyle=1" vertex="1" parent="1">
          <mxGeometry x="605" y="1925" width="30" height="30" as="geometry" />
        </mxCell>
        <mxCell id="ssaRUBrVBBdNvTdfM8SY-327" value="0" style="text;html=1;align=center;verticalAlign=middle;resizable=0;points=[];autosize=1;strokeColor=none;fillColor=none;strokeWidth=2;fontFamily=Comic Sans MS;fontStyle=1" vertex="1" parent="1">
          <mxGeometry x="845" y="1925" width="30" height="30" as="geometry" />
        </mxCell>
        <mxCell id="ssaRUBrVBBdNvTdfM8SY-328" value="1" style="text;html=1;align=center;verticalAlign=middle;resizable=0;points=[];autosize=1;strokeColor=none;fillColor=none;strokeWidth=2;fontFamily=Comic Sans MS;fontStyle=1" vertex="1" parent="1">
          <mxGeometry x="885" y="1925" width="30" height="30" as="geometry" />
        </mxCell>
        <mxCell id="ssaRUBrVBBdNvTdfM8SY-329" value="1" style="text;html=1;align=center;verticalAlign=middle;resizable=0;points=[];autosize=1;strokeColor=none;fillColor=none;strokeWidth=2;fontFamily=Comic Sans MS;fontStyle=1" vertex="1" parent="1">
          <mxGeometry x="925" y="1925" width="30" height="30" as="geometry" />
        </mxCell>
        <mxCell id="ssaRUBrVBBdNvTdfM8SY-331" style="edgeStyle=orthogonalEdgeStyle;rounded=0;orthogonalLoop=1;jettySize=auto;html=1;exitX=1;exitY=0.25;exitDx=0;exitDy=0;entryX=0;entryY=0.25;entryDx=0;entryDy=0;strokeWidth=2;" edge="1" parent="1" source="ssaRUBrVBBdNvTdfM8SY-299" target="ssaRUBrVBBdNvTdfM8SY-320">
          <mxGeometry relative="1" as="geometry" />
        </mxCell>
        <mxCell id="ssaRUBrVBBdNvTdfM8SY-332" style="edgeStyle=orthogonalEdgeStyle;rounded=0;orthogonalLoop=1;jettySize=auto;html=1;exitX=1;exitY=0.25;exitDx=0;exitDy=0;entryX=0;entryY=0.25;entryDx=0;entryDy=0;strokeWidth=2;" edge="1" parent="1" source="ssaRUBrVBBdNvTdfM8SY-224" target="ssaRUBrVBBdNvTdfM8SY-258">
          <mxGeometry relative="1" as="geometry" />
        </mxCell>
        <mxCell id="ssaRUBrVBBdNvTdfM8SY-333" style="edgeStyle=orthogonalEdgeStyle;rounded=0;orthogonalLoop=1;jettySize=auto;html=1;exitX=1;exitY=0.25;exitDx=0;exitDy=0;entryX=0;entryY=0.25;entryDx=0;entryDy=0;strokeWidth=2;" edge="1" parent="1" source="ssaRUBrVBBdNvTdfM8SY-165" target="ssaRUBrVBBdNvTdfM8SY-202">
          <mxGeometry relative="1" as="geometry" />
        </mxCell>
        <mxCell id="ssaRUBrVBBdNvTdfM8SY-334" style="edgeStyle=orthogonalEdgeStyle;rounded=0;orthogonalLoop=1;jettySize=auto;html=1;exitX=1;exitY=0.25;exitDx=0;exitDy=0;entryX=0;entryY=0.25;entryDx=0;entryDy=0;strokeWidth=2;" edge="1" parent="1" source="ssaRUBrVBBdNvTdfM8SY-113" target="ssaRUBrVBBdNvTdfM8SY-81">
          <mxGeometry relative="1" as="geometry" />
        </mxCell>
        <mxCell id="ssaRUBrVBBdNvTdfM8SY-307" value="" style="group" vertex="1" connectable="0" parent="1">
          <mxGeometry x="400" y="1920" width="370" height="50" as="geometry" />
        </mxCell>
        <mxCell id="ssaRUBrVBBdNvTdfM8SY-308" value="" style="whiteSpace=wrap;html=1;strokeWidth=2;fontFamily=Comic Sans MS;fontStyle=1" vertex="1" parent="ssaRUBrVBBdNvTdfM8SY-307">
          <mxGeometry width="40" height="40" as="geometry" />
        </mxCell>
        <mxCell id="ssaRUBrVBBdNvTdfM8SY-309" value="&lt;font color=&quot;#ff0000&quot;&gt;1&lt;/font&gt;" style="text;html=1;align=center;verticalAlign=middle;resizable=0;points=[];autosize=1;strokeColor=none;fillColor=none;strokeWidth=2;fontFamily=Comic Sans MS;fontStyle=1" vertex="1" parent="ssaRUBrVBBdNvTdfM8SY-307">
          <mxGeometry x="5" y="5" width="30" height="30" as="geometry" />
        </mxCell>
        <mxCell id="ssaRUBrVBBdNvTdfM8SY-330" value="" style="rounded=1;whiteSpace=wrap;html=1;strokeWidth=2;fillColor=none;dashed=1;" vertex="1" parent="ssaRUBrVBBdNvTdfM8SY-307">
          <mxGeometry x="-50" y="-10" width="420" height="60" as="geometry" />
        </mxCell>
      </root>
    </mxGraphModel>
  </diagram>
</mxfile>
